<svg xmlns="http://www.w3.org/2000/svg" viewBox="0 0 430 430"><defs><style>.cls-1{fill:#0b36a8;}.cls-2{fill:#fff;}</style></defs><title>favicon</title><g id="Layer_2" data-name="Layer 2"><g id="Layer_1-2" data-name="Layer 1"><circle class="cls-1" cx="215" cy="215" r="215"/><path class="cls-2" d="M181.81,304.78a12.22,12.22,0,0,1-1.05-5c0-1.41.43-2.33,1.31-2.77a2.53,2.53,0,0,0,1.32-2.5,5.32,5.32,0,0,0-.79-3l-1.84-2.76H181c.17,0,.27,0,.27-.13s.08-.14.26-.14h.79q2.1,0,2.1,1.32a1.17,1.17,0,0,0,1.32,1.32h.79a17.29,17.29,0,0,1,.66-6.58q.91-2.89,2.1-5.66c.79-1.84,1.53-3.73,2.24-5.66a19.21,19.21,0,0,0,1-6.58,1.22,1.22,0,0,1,1.32.79c.17.53.7.79,1.58.79a29.72,29.72,0,0,0,7.63-1.05,72.53,72.53,0,0,0,7.37-2.37l2.1,7.89a2.8,2.8,0,0,0,1.05-1.31,14.46,14.46,0,0,0,.92-2.37,13.84,13.84,0,0,0,.53-2.5,3.3,3.3,0,0,0-.13-1.71c1.75-1.4,3.33-2.59,4.74-3.55a8.54,8.54,0,0,1,5-1.45,6.6,6.6,0,0,1,.92.13,5.09,5.09,0,0,0,.92.13l-2.37,2.37q.52,1.32,1,3t1.05,1.71a3.38,3.38,0,0,0,2.9-1.45,16.44,16.44,0,0,0,1.84-3.29c.53-1.22,1-2.5,1.58-3.81a9,9,0,0,1,1.84-3,5.67,5.67,0,0,1,2.37-1.45c.88-.26,1.67-.52,2.37-.79a6.26,6.26,0,0,0,1.84-1.05,2.76,2.76,0,0,0,.79-2.24,4.3,4.3,0,0,0-2-3.55,6.87,6.87,0,0,0-4.08-1.45,1.86,1.86,0,0,0-1.71.66,1.29,1.29,0,0,1-1.19.66h-.52c-.36-2.28-.71-4.61-1.06-7a68.21,68.21,0,0,0-1.31-6.71h-1.05a3.13,3.13,0,0,0-1.32.39,4,4,0,0,0-1,.66h-1.06a34,34,0,0,0-.39-3.55c-.26-1.85-.57-2.94-.92-3.29q-1.32-3.16-4.08-2.37a19,19,0,0,1-5.13.79v1.84a9.49,9.49,0,0,1-6.58-3,11.35,11.35,0,0,1-3.68-6.45,6.89,6.89,0,0,1-1.06.79,2.46,2.46,0,0,1-1.31.53l-.53-.53c-.35-.34-.53-.61-.53-.79a8.43,8.43,0,0,1-1.44-3.68,15.78,15.78,0,0,1,.39-4.21c-1,.7-2,1.28-2.76,1.71a6.18,6.18,0,0,1-3,.66c-1.93,0-2.72-1-2.37-2.9a27.55,27.55,0,0,0,.53-4.73,13.83,13.83,0,0,1-2.89-.53c-1.41-.35-2.11.44-2.11,2.37,0,.35.4.92,1.19,1.71s1.18,1.36,1.18,1.71a5.52,5.52,0,0,1-.92,1.58,15.25,15.25,0,0,1-1.45,1.84h-1a3.48,3.48,0,0,1-.79-1.84,3.84,3.84,0,0,0-.53-1.58,3.93,3.93,0,0,0-1.58-.53,8.15,8.15,0,0,1-1.84-.52,13,13,0,0,1-5-5.26,19.57,19.57,0,0,1-2-6.32,29.45,29.45,0,0,1-.27-5.4c.09-1.48.05-2.23-.13-2.23L171,190l-.52.27a4,4,0,0,0-.66,1.18,4.35,4.35,0,0,1-.66,1.19.23.23,0,0,1-.26.26.76.76,0,0,1-.53.26,10,10,0,0,0-1-5.13,15.29,15.29,0,0,0-2.63-3.16L161.55,182a10.76,10.76,0,0,1-2.63-4.34c0-.35,0-1.41-.13-3.16s-.14-2.81-.14-3.16q0-7.63,2.64-12.63a77.57,77.57,0,0,1,5.65-9.21q3-4.22,5.66-8a15.6,15.6,0,0,0,2.63-9.08h8.42a8,8,0,0,0-.26-1.84,8.39,8.39,0,0,1-.26-2.1,3.28,3.28,0,0,1,.52-1.85,2.4,2.4,0,0,1,2.11-.79c1.05,0,2.06.93,3,2.77a4.84,4.84,0,0,0,4.6,2.76V134a4.15,4.15,0,0,1,1.32.13c.17.1.43-.3.79-1.18V121.62a2.54,2.54,0,0,1,.52-1.31,6.8,6.8,0,0,1,.79-1,4.55,4.55,0,0,1,3.55,1.31,9.76,9.76,0,0,1,1.85,3,23.26,23.26,0,0,1,1,3.68,9.55,9.55,0,0,0,1.45,3.55c1-.17,1.58-1,1.58-2.36V126.1q0-4.47-2-5.4a63.39,63.39,0,0,1-6.45-3.81v-1h9.21a2,2,0,0,1,1.72,1,7.28,7.28,0,0,1,.92,2.37c.17.88.3,1.75.39,2.63s.13,1.58.13,2.1h3.69l2.36-5.79,6.85,3.42q1.05-2.62,3.42-2.63c1.4,0,2.1.53,2.1,1.58a2.06,2.06,0,0,0,1.32,2.11c.17.35.53.26,1.05-.27a.76.76,0,0,1,.53-.26v-4.47a1.07,1.07,0,0,0,.79.26,1.25,1.25,0,0,1,.52.13,1.15,1.15,0,0,0,.53.13,2.06,2.06,0,0,1,1.32,2.11,3.2,3.2,0,0,1-.66,2.1,3.19,3.19,0,0,0-.66,2.11V125l1.05,1.06H235c1.4,0,2.15-.88,2.24-2.63s.13-2.9.13-3.42a7,7,0,0,1,4.08,1.71A14.65,14.65,0,0,1,244.7,125l1.19-1.18a19,19,0,0,1,2-1.71c.7-.53,1.36-1,2-1.45a3.24,3.24,0,0,1,1.18-.65,3.47,3.47,0,0,1,3.16,1.71,11.29,11.29,0,0,1,1.45,3.94A25.35,25.35,0,0,1,256,130a10.89,10.89,0,0,0,.26,2.9,7.48,7.48,0,0,0,1.72,1.71,7.58,7.58,0,0,1,1.71,1.71v.53a.72.72,0,0,0,.26.52,2.38,2.38,0,0,1-.13.66,2.16,2.16,0,0,0-.13.66,16.13,16.13,0,0,1-.4,2.37,11.83,11.83,0,0,1-.66,2.37h-.52q-1.32,0-1.71-.66c-.27-.44-.53-.92-.79-1.45a3.85,3.85,0,0,0-1.45-1.45,8.3,8.3,0,0,0-4-.65,2.91,2.91,0,0,1-.53.79c-.35.52-.43.87-.26,1a4.22,4.22,0,0,0,1.71.52,4.33,4.33,0,0,1,1.71.53,2.39,2.39,0,0,1,1.32,1.45c.17.61.35,1.23.53,1.84a4.2,4.2,0,0,0,.79,1.58,2.59,2.59,0,0,0,2.1.66,2.28,2.28,0,0,1-1.05,1.84,23.26,23.26,0,0,1-2.5,1.58,13.51,13.51,0,0,0-2.5,1.71,3.13,3.13,0,0,0-1.06,2.5,3.08,3.08,0,0,0,1.32,2.89,3.1,3.1,0,0,1,1.32,2.9,2,2,0,0,0-.27.79v1.05a4,4,0,0,0-1.44-1.71c-.79-.61-1.67-1.27-2.64-2a16.9,16.9,0,0,0-2.89-1.72,6.11,6.11,0,0,0-2.24-.65,1.55,1.55,0,0,0-1.44.65,1.56,1.56,0,0,1-1.45.66h-.53a6.3,6.3,0,0,1-1.45-1.18l-2.1-2.11-2.11-2.1a6.37,6.37,0,0,1-1.18-1.45,2.94,2.94,0,0,1-.92-1.71c-.09-.61-.18-1.27-.26-2a3.4,3.4,0,0,0-.53-1.58,2.1,2.1,0,0,0-1.71-.53,47.39,47.39,0,0,0-4.74.4q-3.42.39-7.23.78t-7.24.66c-2.28.18-3.86.36-4.74.53a14.2,14.2,0,0,0-5.39,1.18,5.58,5.58,0,0,0-2.5,2.63,29.23,29.23,0,0,0-1.45,3.95,21.05,21.05,0,0,1-2.24,4.87c-1.23-.35-1.62-.7-1.18-1a1.42,1.42,0,0,0,.66-1.05,18,18,0,0,1-3.29-.27,7.77,7.77,0,0,0-2.37-.13c-.62.09-1,.53-1.32,1.32a14.69,14.69,0,0,0-.39,4.08c0,1.93.79,2.89,2.37,2.89,1.22,0,1.88-.66,2-2s.66-2,1.71-2a31.52,31.52,0,0,0,.4,4.34,28.37,28.37,0,0,0,1.31,5.4,15.29,15.29,0,0,0,2.5,4.6,4.62,4.62,0,0,0,3.68,2h-.26a3.47,3.47,0,0,0-.79.52.8.8,0,0,0-.26.53.23.23,0,0,1-.26.26v1.06a2.08,2.08,0,0,0,1.71,2.1c1.14.36,2.27.75,3.42,1.19a7.38,7.38,0,0,1,2.89,2q1.19,1.32.13,3.95c.35-.7,1.14-1.06,2.37-1.06a2.74,2.74,0,0,1,2.77,1.45,18.38,18.38,0,0,1,1,3,12.8,12.8,0,0,0,1.18,3,3,3,0,0,0,2.9,1.45h1a4.57,4.57,0,0,1-1.45-2.89c-.09-1.06-.13-2-.13-2.9a4.42,4.42,0,0,0-.79-2.5,5.93,5.93,0,0,0-3.16-2,2.7,2.7,0,0,1,1.19-.26H215a6.73,6.73,0,0,1,3.95,1.31c1.22.88,2.45,1.84,3.68,2.9S225,194,226.15,195a8.58,8.58,0,0,0,3.82,2.11c1.05.35,2.45.79,4.21,1.31s2.63.88,2.63,1.06l5.79,11.31a6.33,6.33,0,0,1,.39-1.71,17.63,17.63,0,0,1,.66-1.71l.27-.26h.52l.26.26a31.53,31.53,0,0,1,3.69,8.16l2.1-1.32a10.18,10.18,0,0,0-.52,5.66,18.13,18.13,0,0,0,2,5.66,15.9,15.9,0,0,0,3.82,4.61,11.25,11.25,0,0,0,5,2.5,42.74,42.74,0,0,1,3.42,5.13,11.3,11.3,0,0,1,1.58,5.65c0,1.06-.84,2.5-2.5,4.35s-3.21,2.5-4.61,2a11.34,11.34,0,0,1,2.11,6.84,27.58,27.58,0,0,1-.66,4.87c-.44,2.2-1.54,3.29-3.29,3.29h-.53a2.91,2.91,0,0,0-1-.53,3.16,3.16,0,0,1-1.31-.79v1.32c.17.7.43,1.76.79,3.16a16.74,16.74,0,0,1,.52,2.63l1,1.05a12.11,12.11,0,0,0-1.31,1.71,16.77,16.77,0,0,0-1.05,1.71,9.18,9.18,0,0,1-2.11,3.16,12.51,12.51,0,0,0-2.37,2.63,2.59,2.59,0,0,0,2.37,1.32v3.42a5.24,5.24,0,0,1-4.08-2,4.8,4.8,0,0,0-3.55-2l-.53.26-2.37,12.63c0,.36-.35.7-1.05,1.06h-.52a1.46,1.46,0,0,1-1.45-.79,5.77,5.77,0,0,1-.53-1.58,11.38,11.38,0,0,0-.39-1.58,1.23,1.23,0,0,0-1.32-.79,2.62,2.62,0,0,0-2.89,2,28.17,28.17,0,0,0-.79,4.07H231a3.89,3.89,0,0,1-3.42-2.23c-.88-1.49-1.58-2.68-2.11-3.55-.88.17-1.31.52-1.31,1V294q0,1.32.66,1.71c.43.26.65.83.65,1.71a15.86,15.86,0,0,1-.26,2.76c-.17,1-.88,1.45-2.1,1.45a1.25,1.25,0,0,1-.53-.13,1.82,1.82,0,0,0-.79-.13c.35-.35.35-1.1,0-2.24a5.87,5.87,0,0,0-1.05-2.24h-1.32a.23.23,0,0,1-.26-.26c-.88,0-1.8,0-2.76.13a1.49,1.49,0,0,0-1.45,1.71V299a4.53,4.53,0,0,0,1.18.66,4.1,4.1,0,0,1,1.19.66l.26.26a.23.23,0,0,0,.26.26c-1.75,0-2.81.18-3.15.53a1.18,1.18,0,0,0-.27,1.31,9.69,9.69,0,0,1,.4,2,3.48,3.48,0,0,1-.92,2.5,5.55,5.55,0,0,1-2.11.52,9.56,9.56,0,0,0-2.37.53c-.35,0-.61.35-.79,1.05a3.33,3.33,0,0,1-.52,1.32.24.24,0,0,1-.27.26h-.79a3,3,0,0,1-2.89-1.44c-.53-1-1.67-1.45-3.42-1.45a13.2,13.2,0,0,0-1.58.13c-.7.08-1.14.13-1.32.13s-.52.39-1.05,1.19-1,1.18-1.31,1.18-.93-.4-1.71-1.18-1.37-1.19-1.72-1.19a12.65,12.65,0,0,0-2-.66,25.37,25.37,0,0,1-3-1.05,25,25,0,0,0-3-1.05C183.08,305.17,182.34,305,181.81,304.78Zm-14.73-151a1.05,1.05,0,1,0,0,2.1q.78,0,.78-1.05T167.08,153.73Zm5.26,19.47a1.62,1.62,0,0,0,1.18,1.71,7.66,7.66,0,0,0,2.5.4,5.33,5.33,0,0,0,3-.66c.61-.44.92-1.36.92-2.76,0-.35-.05-1-.13-1.85a1.64,1.64,0,0,0-1.45-1.57,1.91,1.91,0,0,1,.13,2.23,4.34,4.34,0,0,1-1.84,1.45,12.21,12.21,0,0,1-2.37.79A9.11,9.11,0,0,1,172.34,173.2ZM175,180a2.58,2.58,0,0,0,2.37,1.32V180Zm4.47-2.63c1.75,0,2.77,1,3,2.9a35.48,35.48,0,0,1,.39,4.21,8.07,8.07,0,0,0,3.29-6.05,68.24,68.24,0,0,0,.4-6.85v-.92c0-.26-.44-.57-1.32-.92a5.05,5.05,0,0,1-1.31,4.74,7.13,7.13,0,0,1-4.48,2.1Zm3.42,20.79c-.52,0-.79.4-.79,1.19s.27,1.18.79,1.18c.7,0,1.06-.39,1.06-1.18S183.56,198.2,182.86,198.2Zm0-3.42c-.35-.17-.52,0-.52.53s.17.79.52.79a.85.85,0,0,0,.53-.79A.47.47,0,0,0,182.86,194.78Zm2.37,106.58h1.32v-1.05h-1.32Zm3.42-165a3.62,3.62,0,0,0-1.31,2.37h1.31ZM190,292.15c.17-.35,0-.53-.53-.53s-.79.18-.79.53a.84.84,0,0,0,.79.52A.46.46,0,0,0,190,292.15Zm0-92.63H191V198.2Zm4.47,98.42c-2.1,0-3.42.35-3.94,1.05a1.62,1.62,0,0,0,.26,2.24,9.94,9.94,0,0,0,3.81,2.23,19,19,0,0,0,6.71,1.05c.18,0,0-.35-.52-1.05a15.72,15.72,0,0,0-2.11-2.23c-.88-.79-1.75-1.54-2.63-2.24A5.28,5.28,0,0,0,194.44,297.94Zm-3.68-145.53a2.32,2.32,0,0,0,2.63,2.63v-2.63Zm1.31,151.32c-.52,0-.78.39-.78,1.18s.26,1.18.78,1.18c.7,0,1.06-.39,1.06-1.18S192.77,303.73,192.07,303.73ZM193.39,149h2.11v-1.05h-2.11Zm1.05-9.21c-.52,0-.79.4-.79,1.19s.27,1.18.79,1.18.79-.39.79-1.18S195,139.78,194.44,139.78ZM196.81,204a6,6,0,0,0,.4,1.71,15,15,0,0,0,.65,1.71,2.69,2.69,0,0,0,1.58-2.37,21.71,21.71,0,0,0,.27-2.36,8,8,0,0,0-1.85.26Q196.81,203.21,196.81,204Zm0,90.52q0,1.85,1.05,2.37a2.12,2.12,0,0,1,.14-.65,2.52,2.52,0,0,0,.13-.66,2,2,0,0,0-1.32-2.11Zm1.05-98.41c-.52,0-.79.35-.79,1.05s.27,1,.79,1,.79-.35.79-1S198.39,196.1,197.86,196.1Zm6.85,75.52a34.09,34.09,0,0,1-3.16,2.37c-1.76,1.23-2.63,2.11-2.63,2.63l8.15,2.37Zm-3.43-133.94c-.35-.18-.52,0-.52.39s.17.66.52.66c.36-.17.53-.39.53-.66S201.64,137.68,201.28,137.68Zm3.43,76.57h1.58c0-.7-.53-1.4-1.58-2.1Zm9.21-6.84c-.36-.17-.53,0-.53.53s.17.79.53.79Q215.23,207.41,213.92,207.41Zm5.26-82.63a2.25,2.25,0,0,0-2.37,1.45,8.15,8.15,0,0,0-.53,2.76v1.84a17.5,17.5,0,0,0,2.77-1.84,3.68,3.68,0,0,0,1.71-2.89.94.94,0,0,0-1-1.06Zm-1.84,82.63h1v-1h-1Zm3.42-11.31c-.53,0-.79.35-.79,1.05s.26,1,.79,1,.79-.35.79-1S221.28,196.1,220.76,196.1Zm-.53,21.57c0,.88.57,1.5,1.71,1.85a10.06,10.06,0,0,0,2.24.52,2.89,2.89,0,0,0,1-1,1.31,1.31,0,0,0,.26-1.32Zm.53,69,1.05-1.31h-1.05Zm1.05-87.1h1.32l-1.32-1.32Zm1.32,13.68,1.05-1h-2.37Zm1.05-7.89c-.53,0-.79.35-.79,1.05s.26,1,.79,1a1.05,1.05,0,0,0,0-2.1Zm1.31,15.79c-1.05.88-1.57,1.67-1.57,2.36h1.57Zm3.43,64.21a2.27,2.27,0,0,0-2.37,1.31H230C230,285.75,229.61,285.31,228.92,285.31Zm-1.32-71.06h1.84a8.09,8.09,0,0,0-.26-1.84,2.39,2.39,0,0,0-1.58-1.58Zm2.9-13.94c-.53,0-.93.35-1.19,1.05a16.08,16.08,0,0,0-.66,2.37,13.2,13.2,0,0,0-.26,2.5v1.45a4.49,4.49,0,0,0,2.89-1.06A3.24,3.24,0,0,0,232.6,204a9.42,9.42,0,0,0-.39-2.24A1.69,1.69,0,0,0,230.5,200.31ZM230,223.46H231L230,220ZM231,124c-.52,0-.79.36-.79,1.05s.27,1.06.79,1.06a1.06,1.06,0,0,0,0-2.11Zm4.74,79c-.36-.35-.53,0-.53,1.05s.17,1.49.53,1.32Q236.81,203.47,235.76,202.94Zm-.26,29.74a12.24,12.24,0,0,0,.92,4.47,3.67,3.67,0,0,0,3.81,2.37h1.05a18.09,18.09,0,0,1,3-.53,10.72,10.72,0,0,0,2.76-.53.72.72,0,0,0,.27-.52c0-.7-.27-1.1-.79-1.19l-1.58-.26a4,4,0,0,1-1.58-.66,2.35,2.35,0,0,1-.79-2.1c-1.23.88-2.06,1.27-2.5,1.18a19,19,0,0,0-2.76-.13,6,6,0,0,1,.66-3.16c.43-.7-.31-1.49-2.24-2.37,0,.36,0,.93-.13,1.72A16.54,16.54,0,0,0,235.5,232.68ZM236.81,260c-.35-.17-.52,0-.52.53s.17.79.52.79a.84.84,0,0,0,.53-.79A.47.47,0,0,0,236.81,260Zm1.05-42.37c.18-.34,0-.52-.39-.52s-.66.18-.66.52c.17.36.4.53.66.53S237.86,218,237.86,217.67Zm0,37.9c-.52,0-.79.39-.79,1.18s.27,1.19.79,1.19c.7,0,1.06-.4,1.06-1.19S238.56,255.57,237.86,255.57Zm1.32-34.47a4.13,4.13,0,0,0,2.1,3.68v-6.05Q239.18,218.73,239.18,221.1Zm1-93.69c-.52,0-.79.36-.79,1.06s.27,1.05.79,1.05.79-.35.79-1.05S240.76,127.41,240.23,127.41Zm0,86.84a2.53,2.53,0,0,0,2.37,1.58v-1.58Zm8.42,9.74a11.59,11.59,0,0,0-5.26,1.19,4.39,4.39,0,0,0-2.37,4.34,10.74,10.74,0,0,0,4.87-1.45A4.46,4.46,0,0,0,248.65,224Zm-4-86.31h1.58a2.52,2.52,0,0,0-1.58-2.37ZM246,221.1h1L246,220Zm1,27.63h1.32v-2.37h-1.32Zm10.53,6.58a4.4,4.4,0,0,0-2.5.79,14.31,14.31,0,0,0-2.24,1.84h1.58C256.55,257.94,257.6,257.06,257.6,255.31Zm-2.37-5.53a2.39,2.39,0,0,0,1.32-2.11h-1.32Zm1-12.63c-.35-.17-.52,0-.52.52s.17.79.52.79a.83.83,0,0,0,.53-.79A.47.47,0,0,0,256.28,237.15Zm1.06,4.73c-.53,0-.79.36-.79,1.06s.26,1.05.79,1.05a1.06,1.06,0,0,0,0-2.11Z"/></g></g></svg>