<svg id="Layer_1" data-name="Layer 1" xmlns="http://www.w3.org/2000/svg" viewBox="0 0 430 430"><defs><style>.cls-1{fill:#0b36a8;}.cls-2{fill:#fff;}</style></defs><title>samFavIcon</title><circle class="cls-1" cx="215" cy="215" r="215"/><path class="cls-2" d="M226.81,346.12a12.22,12.22,0,0,1-1.05-5c0-1.41.43-2.33,1.31-2.76a2.54,2.54,0,0,0,1.32-2.5,5.33,5.33,0,0,0-.79-3l-1.84-2.76H226c.17,0,.27,0,.27-.13s.08-.13.26-.13h.79c1.4,0,2.1.43,2.1,1.31a1.17,1.17,0,0,0,1.32,1.32h.79a17.29,17.29,0,0,1,.66-6.58q.91-2.89,2.1-5.66c.79-1.84,1.53-3.73,2.24-5.66a19.21,19.21,0,0,0,1-6.58,1.23,1.23,0,0,1,1.32.79c.17.53.7.79,1.58.79a29.72,29.72,0,0,0,7.63-1.05,72.53,72.53,0,0,0,7.37-2.37l2.1,7.9a2.9,2.9,0,0,0,1-1.32,14.46,14.46,0,0,0,.92-2.37,13.66,13.66,0,0,0,.53-2.5,3.31,3.31,0,0,0-.13-1.71c1.75-1.4,3.33-2.59,4.74-3.55a8.61,8.61,0,0,1,5-1.45,6.6,6.6,0,0,1,.92.13,5.09,5.09,0,0,0,.92.13l-2.37,2.37q.52,1.32,1.05,3t1,1.71a3.38,3.38,0,0,0,2.9-1.45,16.44,16.44,0,0,0,1.84-3.29c.53-1.22,1.05-2.5,1.58-3.81a9,9,0,0,1,1.84-3,5.67,5.67,0,0,1,2.37-1.45c.88-.26,1.67-.52,2.37-.79a6.26,6.26,0,0,0,1.84-1.05,2.76,2.76,0,0,0,.79-2.24,4.3,4.3,0,0,0-2-3.55,6.86,6.86,0,0,0-4.08-1.44c-.88,0-1.45.22-1.71.65a1.29,1.29,0,0,1-1.19.66h-.52q-.54-3.42-1.06-7A68.21,68.21,0,0,0,275,274h-1.05a3.13,3.13,0,0,0-1.32.39,4.26,4.26,0,0,0-1.05.66h-1.06a34,34,0,0,0-.39-3.55c-.26-1.85-.57-2.94-.92-3.29q-1.32-3.17-4.08-2.37a18.59,18.59,0,0,1-5.13.79v1.84a9.49,9.49,0,0,1-6.58-3,11.36,11.36,0,0,1-3.68-6.44,8.56,8.56,0,0,1-1.06.79,2.51,2.51,0,0,1-1.31.52l-.53-.52c-.35-.35-.53-.62-.53-.79a8.47,8.47,0,0,1-1.44-3.69,15.78,15.78,0,0,1,.39-4.21q-1.57,1.06-2.76,1.71a6.18,6.18,0,0,1-3,.66c-1.93,0-2.72-1-2.37-2.9a27.55,27.55,0,0,0,.53-4.73,13.83,13.83,0,0,1-2.89-.53c-1.41-.35-2.11.44-2.11,2.37,0,.35.4.92,1.19,1.71s1.18,1.36,1.18,1.71a5.39,5.39,0,0,1-.92,1.58,15.25,15.25,0,0,1-1.45,1.84h-1a3.48,3.48,0,0,1-.79-1.84,1.87,1.87,0,0,0-2.11-2.11,7.64,7.64,0,0,1-1.84-.52,13,13,0,0,1-5-5.26,19.5,19.5,0,0,1-2-6.32,29.34,29.34,0,0,1-.27-5.39c.09-1.49.05-2.24-.13-2.24l-3.42.53-.52.26a4.15,4.15,0,0,0-.66,1.18,4.35,4.35,0,0,1-.66,1.19.23.23,0,0,1-.26.26.76.76,0,0,1-.53.26,10,10,0,0,0-1-5.13,15.29,15.29,0,0,0-2.63-3.16l-3.16-2.89a10.76,10.76,0,0,1-2.63-4.34c0-.35,0-1.41-.13-3.16s-.14-2.8-.14-3.16q0-7.62,2.64-12.63a77.57,77.57,0,0,1,5.65-9.21q3-4.2,5.66-8a15.59,15.59,0,0,0,2.63-9.07h8.42a8.09,8.09,0,0,0-.26-1.85,8.39,8.39,0,0,1-.26-2.1,3.23,3.23,0,0,1,.52-1.84,2.37,2.37,0,0,1,2.11-.79q1.58,0,3,2.76a4.84,4.84,0,0,0,4.6,2.76v2.63a3.77,3.77,0,0,1,1.32.14c.17.09.43-.31.79-1.19V163a2.57,2.57,0,0,1,.52-1.32,6.8,6.8,0,0,1,.79-1.05,4.55,4.55,0,0,1,3.55,1.31,9.76,9.76,0,0,1,1.85,3,23.26,23.26,0,0,1,1,3.68,9.66,9.66,0,0,0,1.45,3.56c1-.18,1.58-1,1.58-2.37v-2.37q0-4.47-2-5.4a63.39,63.39,0,0,1-6.45-3.81v-1h9.21a2,2,0,0,1,1.72,1,7.28,7.28,0,0,1,.92,2.37c.17.88.3,1.75.39,2.63s.13,1.58.13,2.1h3.69l2.36-5.79,6.85,3.43q1-2.64,3.42-2.64c1.4,0,2.1.53,2.1,1.58A2,2,0,0,0,275,164c.17.35.53.26,1-.26a.74.74,0,0,1,.53-.27V159a1,1,0,0,0,.79.26,1.25,1.25,0,0,1,.52.13,1.15,1.15,0,0,0,.53.13,2.06,2.06,0,0,1,1.32,2.11,3.25,3.25,0,0,1-.66,2.11,3.14,3.14,0,0,0-.66,2.1v.53l1.05,1.05H280c1.4,0,2.15-.88,2.24-2.63s.13-2.9.13-3.42a7,7,0,0,1,4.08,1.71,14.46,14.46,0,0,1,3.28,3.29l1.19-1.19a19,19,0,0,1,2-1.71c.7-.52,1.36-1,2-1.45a3.24,3.24,0,0,1,1.18-.65,3.47,3.47,0,0,1,3.16,1.71,11.34,11.34,0,0,1,1.45,4,25.18,25.18,0,0,1,.39,4.34,10.8,10.8,0,0,0,.26,2.89A7.48,7.48,0,0,0,303,176a7.58,7.58,0,0,1,1.71,1.71v.53a.71.71,0,0,0,.26.52,2.38,2.38,0,0,1-.13.66,2.16,2.16,0,0,0-.13.66,16.13,16.13,0,0,1-.4,2.37,11.83,11.83,0,0,1-.66,2.37h-.52q-1.32,0-1.71-.66c-.27-.44-.53-.92-.79-1.45a4,4,0,0,0-1.45-1.45,8.3,8.3,0,0,0-3.95-.65,2.91,2.91,0,0,1-.53.79c-.35.52-.43.88-.26,1.05a4.06,4.06,0,0,0,1.71.52,4.33,4.33,0,0,1,1.71.53,2.41,2.41,0,0,1,1.32,1.45c.17.62.35,1.23.53,1.84a4.2,4.2,0,0,0,.79,1.58,2.59,2.59,0,0,0,2.1.66,2.28,2.28,0,0,1-1.05,1.84,21.79,21.79,0,0,1-2.5,1.58,14,14,0,0,0-2.5,1.71,3.14,3.14,0,0,0-1.06,2.5,3.07,3.07,0,0,0,1.32,2.89,3.11,3.11,0,0,1,1.32,2.9,2,2,0,0,0-.27.79v1.05a4,4,0,0,0-1.44-1.71c-.79-.61-1.67-1.27-2.64-2a16.83,16.83,0,0,0-2.89-1.71,6,6,0,0,0-2.24-.66,1.53,1.53,0,0,0-1.44.66,1.55,1.55,0,0,1-1.45.65h-.53a6.3,6.3,0,0,1-1.45-1.18l-2.1-2.11-2.11-2.1a6.16,6.16,0,0,1-1.18-1.45,2.91,2.91,0,0,1-.92-1.71c-.09-.61-.18-1.27-.26-2a3.4,3.4,0,0,0-.53-1.58,2.1,2.1,0,0,0-1.71-.53,47.39,47.39,0,0,0-4.74.4q-3.42.39-7.23.79t-7.24.66a47.3,47.3,0,0,0-4.74.52,14,14,0,0,0-5.39,1.19,5.49,5.49,0,0,0-2.5,2.63,29.06,29.06,0,0,0-1.45,3.94,20.87,20.87,0,0,1-2.24,4.87c-1.23-.35-1.62-.7-1.18-1a1.42,1.42,0,0,0,.66-1.05,18,18,0,0,1-3.29-.27,8.1,8.1,0,0,0-2.37-.13c-.62.09-1,.53-1.32,1.32a14.69,14.69,0,0,0-.39,4.08c0,1.93.79,2.89,2.37,2.89,1.22,0,1.88-.66,2-2s.66-2,1.71-2a31.78,31.78,0,0,0,.4,4.35,28.45,28.45,0,0,0,1.31,5.39,15.47,15.47,0,0,0,2.5,4.61,4.63,4.63,0,0,0,3.68,2h-.26a3.16,3.16,0,0,0-.79.53.76.76,0,0,0-.26.52.24.24,0,0,1-.26.27v1.05a2.08,2.08,0,0,0,1.71,2.1c1.14.36,2.27.75,3.42,1.19a7.48,7.48,0,0,1,2.89,2q1.19,1.32.13,4,.52-1.05,2.37-1.05a2.73,2.73,0,0,1,2.77,1.44,18.38,18.38,0,0,1,1.05,3,13,13,0,0,0,1.18,3,3,3,0,0,0,2.9,1.44h1.05a4.57,4.57,0,0,1-1.45-2.89c-.09-1.05-.13-2-.13-2.9a4.42,4.42,0,0,0-.79-2.5,5.93,5.93,0,0,0-3.16-2,2.7,2.7,0,0,1,1.19-.26H260a6.73,6.73,0,0,1,3.95,1.31c1.22.88,2.45,1.84,3.68,2.9s2.41,2.1,3.55,3.16a8.66,8.66,0,0,0,3.82,2.1c1,.35,2.45.79,4.21,1.32s2.63.88,2.63,1.05l5.79,11.31a6.41,6.41,0,0,1,.39-1.71,17.63,17.63,0,0,1,.66-1.71l.27-.26h.52l.26.26a31.53,31.53,0,0,1,3.69,8.16l2.1-1.31a10.14,10.14,0,0,0-.52,5.65,18.13,18.13,0,0,0,2,5.66,15.9,15.9,0,0,0,3.82,4.61,11.25,11.25,0,0,0,5,2.5,43.55,43.55,0,0,1,3.42,5.13,11.3,11.3,0,0,1,1.58,5.66c0,1.05-.84,2.5-2.5,4.34s-3.21,2.5-4.61,2a11.34,11.34,0,0,1,2.11,6.84,27.46,27.46,0,0,1-.66,4.87c-.44,2.2-1.54,3.29-3.29,3.29h-.53a2.77,2.77,0,0,0-1-.52,3.38,3.38,0,0,1-1.31-.79v1.31c.17.7.43,1.76.79,3.16a17,17,0,0,1,.52,2.63l1,1a12.74,12.74,0,0,0-1.31,1.71,16.77,16.77,0,0,0-1.05,1.71,9.18,9.18,0,0,1-2.11,3.16,12.79,12.79,0,0,0-2.37,2.63,2.59,2.59,0,0,0,2.37,1.32v3.42a5.24,5.24,0,0,1-4.08-2,4.8,4.8,0,0,0-3.55-2l-.53.27-2.37,12.63q0,.52-1,1.05h-.52a1.46,1.46,0,0,1-1.45-.79,5.77,5.77,0,0,1-.53-1.58,11.38,11.38,0,0,0-.39-1.58,1.23,1.23,0,0,0-1.32-.79,2.62,2.62,0,0,0-2.89,2,28,28,0,0,0-.79,4.08H276A3.9,3.9,0,0,1,272.6,336c-.88-1.49-1.58-2.68-2.11-3.55-.88.17-1.31.52-1.31,1.05v1.84q0,1.32.66,1.71c.43.26.65.83.65,1.71a15.86,15.86,0,0,1-.26,2.76c-.17,1-.88,1.45-2.1,1.45a1.12,1.12,0,0,1-.53-.13,1.82,1.82,0,0,0-.79-.13c.35-.35.35-1.1,0-2.24a5.8,5.8,0,0,0-1.05-2.23h-1.32a.24.24,0,0,1-.26-.27c-.88,0-1.8,0-2.76.13A1.49,1.49,0,0,0,260,339.8v.53a4.25,4.25,0,0,0,1.18.66,4.1,4.1,0,0,1,1.19.66l.26.26a.23.23,0,0,0,.26.26c-1.75,0-2.81.18-3.15.53a1.18,1.18,0,0,0-.27,1.31,9.69,9.69,0,0,1,.4,2,3.48,3.48,0,0,1-.92,2.5,5.55,5.55,0,0,1-2.11.52,9.56,9.56,0,0,0-2.37.53c-.35,0-.61.35-.79,1a3.33,3.33,0,0,1-.52,1.32.24.24,0,0,1-.27.26h-.79a3,3,0,0,1-2.89-1.44c-.53-1-1.67-1.45-3.42-1.45a13.2,13.2,0,0,0-1.58.13c-.7.09-1.14.13-1.32.13s-.52.4-1.05,1.19-1,1.18-1.31,1.18-.93-.39-1.71-1.18-1.37-1.19-1.72-1.19a11.89,11.89,0,0,0-2-.65,25.5,25.5,0,0,1-3-1.06,25,25,0,0,0-3-1.05C228.08,346.51,227.34,346.3,226.81,346.12Zm-14.73-151a1.06,1.06,0,1,0,0,2.11c.52,0,.78-.35.78-1.06S212.6,195.07,212.08,195.07Zm5.26,19.47a1.62,1.62,0,0,0,1.18,1.71,7.66,7.66,0,0,0,2.5.4,5.33,5.33,0,0,0,3-.66c.61-.43.92-1.36.92-2.76,0-.35-.05-1-.13-1.84a1.64,1.64,0,0,0-1.45-1.58,1.91,1.91,0,0,1,.13,2.23,4.34,4.34,0,0,1-1.84,1.45,11.57,11.57,0,0,1-2.37.79A9.11,9.11,0,0,1,217.34,214.54Zm2.63,6.85a2.57,2.57,0,0,0,2.37,1.31v-1.31Zm4.47-2.64c1.75,0,2.77,1,3,2.9a35.48,35.48,0,0,1,.39,4.21,8.07,8.07,0,0,0,3.29-6.05,68.06,68.06,0,0,0,.4-6.84V212c0-.26-.44-.56-1.32-.92a5,5,0,0,1-1.31,4.74,7.2,7.2,0,0,1-4.48,2.11Zm3.42,20.79c-.52,0-.79.4-.79,1.19s.27,1.18.79,1.18c.7,0,1.06-.39,1.06-1.18S228.56,239.54,227.86,239.54Zm0-3.42c-.35-.17-.52,0-.52.53s.17.79.52.79a.84.84,0,0,0,.53-.79A.47.47,0,0,0,227.86,236.12Zm2.37,106.58h1.32v-1.05h-1.32Zm3.42-165a3.62,3.62,0,0,0-1.31,2.37h1.31ZM235,333.49c.17-.35,0-.53-.53-.53s-.79.18-.79.53a.84.84,0,0,0,.79.52A.46.46,0,0,0,235,333.49Zm0-92.63H236v-1.32Zm4.47,98.42c-2.1,0-3.42.35-3.94,1.05a1.62,1.62,0,0,0,.26,2.24,9.82,9.82,0,0,0,3.81,2.23,19,19,0,0,0,6.71,1.06c.18,0,0-.36-.52-1.06a16.28,16.28,0,0,0-2.11-2.23c-.88-.79-1.75-1.54-2.63-2.24A5.28,5.28,0,0,0,239.44,339.28Zm-3.68-145.52a2.32,2.32,0,0,0,2.63,2.63v-2.63Zm1.31,151.31c-.52,0-.78.39-.78,1.18s.26,1.19.78,1.19c.7,0,1.06-.4,1.06-1.19S237.77,345.07,237.07,345.07Zm1.32-154.74h2.11v-1.05h-2.11Zm1.05-9.21c-.52,0-.79.4-.79,1.19s.27,1.18.79,1.18.79-.39.79-1.18S240,181.12,239.44,181.12Zm2.37,64.21a6,6,0,0,0,.4,1.71,15,15,0,0,0,.65,1.71,2.68,2.68,0,0,0,1.58-2.36,22.06,22.06,0,0,0,.27-2.37,8,8,0,0,0-1.85.26Q241.81,244.55,241.81,245.33Zm0,90.53q0,1.83,1.05,2.37a2.11,2.11,0,0,1,.14-.66,2.52,2.52,0,0,0,.13-.66,2,2,0,0,0-1.32-2.1Zm1.05-98.42c-.52,0-.79.35-.79,1.05s.27,1,.79,1,.79-.35.79-1S243.39,237.44,242.86,237.44ZM249.71,313a32.25,32.25,0,0,1-3.16,2.37c-1.76,1.23-2.63,2.11-2.63,2.63l8.15,2.37ZM246.28,179c-.35-.18-.52,0-.52.39s.17.66.52.66c.36-.17.53-.39.53-.66S246.64,179,246.28,179Zm3.43,76.58h1.58c0-.7-.53-1.41-1.58-2.11Zm9.21-6.85c-.36-.17-.53,0-.53.53s.17.79.53.79Q260.23,248.75,258.92,248.75Zm5.26-82.63a2.25,2.25,0,0,0-2.37,1.45,8.15,8.15,0,0,0-.53,2.76v1.85a18.46,18.46,0,0,0,2.77-1.85,3.68,3.68,0,0,0,1.71-2.89.93.93,0,0,0-1.05-1.05Zm-1.84,82.63h1.05V247.7h-1.05Zm3.42-11.31c-.53,0-.79.35-.79,1.05s.26,1,.79,1,.79-.35.79-1S266.28,237.44,265.76,237.44ZM265.23,259c0,.88.57,1.49,1.71,1.84a10.31,10.31,0,0,0,2.24.53,3,3,0,0,0,1.05-1.06,1.29,1.29,0,0,0,.26-1.31Zm.53,68.94,1.05-1.31h-1.05Zm1.05-87.1h1.32l-1.32-1.32Zm1.32,13.68,1.05-1h-2.37Zm1.05-7.89c-.53,0-.79.35-.79,1s.26,1.05.79,1.05a1,1,0,1,0,0-2.1Zm1.31,15.79c-1.05.88-1.57,1.67-1.57,2.37h1.57Zm3.43,64.21a2.27,2.27,0,0,0-2.37,1.31H275C275,327.09,274.61,326.65,273.92,326.65Zm-1.32-71h1.84a8.09,8.09,0,0,0-.26-1.85,2.39,2.39,0,0,0-1.58-1.58Zm2.9-13.95c-.53,0-.93.35-1.19,1a16.08,16.08,0,0,0-.66,2.37,13.2,13.2,0,0,0-.26,2.5V249a4.49,4.49,0,0,0,2.89-1.06,3.22,3.22,0,0,0,1.32-2.63,9.27,9.27,0,0,0-.39-2.23A1.69,1.69,0,0,0,275.5,241.65ZM275,264.81h1l-1-3.42Zm1-99.48c-.52,0-.79.36-.79,1.06s.27,1.05.79,1.05a1.06,1.06,0,0,0,0-2.11Zm4.74,78.95c-.36-.35-.53,0-.53,1.05s.17,1.5.53,1.32Q281.81,244.8,280.76,244.28ZM280.5,274a12.24,12.24,0,0,0,.92,4.47,3.67,3.67,0,0,0,3.81,2.37h1a19.23,19.23,0,0,1,3-.53,11.39,11.39,0,0,0,2.76-.52.76.76,0,0,0,.27-.53c0-.7-.27-1.09-.79-1.18l-1.58-.27a3.82,3.82,0,0,1-1.58-.66,2.35,2.35,0,0,1-.79-2.1c-1.23.88-2.06,1.27-2.5,1.18a19,19,0,0,0-2.76-.13A6,6,0,0,1,283,273c.43-.7-.31-1.49-2.24-2.36,0,.35-.05.92-.13,1.71A16.54,16.54,0,0,0,280.5,274Zm1.31,27.36c-.35-.17-.52,0-.52.53s.17.79.52.79a.84.84,0,0,0,.53-.79A.47.47,0,0,0,281.81,301.38ZM282.86,259c.18-.35.05-.53-.39-.53s-.66.18-.66.53a.76.76,0,0,0,.66.52C282.73,259.54,282.86,259.37,282.86,259Zm0,37.89c-.52,0-.79.39-.79,1.18s.27,1.19.79,1.19c.7,0,1.06-.4,1.06-1.19S283.56,296.91,282.86,296.91Zm1.32-34.47a4.11,4.11,0,0,0,2.1,3.68v-6.05Q284.18,260.07,284.18,262.44Zm1.05-93.68c-.52,0-.79.35-.79,1.05s.27,1.05.79,1.05.79-.35.79-1.05S285.76,168.76,285.23,168.76Zm0,86.84a2.53,2.53,0,0,0,2.37,1.57V255.6Zm8.42,9.73a11.59,11.59,0,0,0-5.26,1.19,4.4,4.4,0,0,0-2.37,4.34,10.74,10.74,0,0,0,4.87-1.45A4.46,4.46,0,0,0,293.65,265.33ZM289.7,179h1.58a2.52,2.52,0,0,0-1.58-2.37ZM291,262.44h1.05L291,261.39Zm1.05,27.63h1.32V287.7h-1.32Zm10.53,6.58a4.4,4.4,0,0,0-2.5.79,14.31,14.31,0,0,0-2.24,1.84h1.58C301.55,299.28,302.6,298.4,302.6,296.65Zm-2.37-5.53a2.36,2.36,0,0,0,1.32-2.1h-1.32Zm1-12.63c-.35-.17-.52,0-.52.53s.17.79.52.79a.85.85,0,0,0,.53-.79A.47.47,0,0,0,301.28,278.49Zm1.06,4.74c-.53,0-.79.35-.79,1s.26,1.05.79,1.05a1,1,0,1,0,0-2.1Z" transform="translate(-45 -41.34)"/></svg>