<svg id="Layer_1" data-name="Layer 1" xmlns="http://www.w3.org/2000/svg" viewBox="0 0 515 167.39"><defs><style>.cls-1{fill:#0b36a8;}.cls-2{fill:#fff;}</style></defs><title>logo1</title><circle class="cls-1" cx="83.69" cy="83.69" r="83.69"/><path class="cls-2" d="M196.76,256.15a3.89,3.89,0,0,1-.34-1.62.89.89,0,0,1,.43-.9.82.82,0,0,0,.42-.81,1.74,1.74,0,0,0-.25-1l-.6-.9h.09c.05,0,.08,0,.08,0s0,0,.09,0h.25q.69,0,.69.42a.37.37,0,0,0,.42.43h.26a5.56,5.56,0,0,1,.21-2.13c.2-.63.43-1.24.68-1.84s.5-1.21.73-1.83a6.2,6.2,0,0,0,.34-2.14.4.4,0,0,1,.43.26c.05.17.23.25.51.25a9.54,9.54,0,0,0,2.48-.34,21,21,0,0,0,2.39-.77l.68,2.56a.85.85,0,0,0,.34-.42,4.58,4.58,0,0,0,.3-.77,5.1,5.1,0,0,0,.17-.81,1.15,1.15,0,0,0,0-.56c.57-.45,1.08-.84,1.53-1.15a2.84,2.84,0,0,1,1.63-.47l.3,0,.29,0-.76.77c.11.28.22.61.34,1s.22.55.34.55a1.08,1.08,0,0,0,.94-.47,6.67,6.67,0,0,0,.6-1.06c.17-.4.34-.82.51-1.24a2.89,2.89,0,0,1,.59-1,1.79,1.79,0,0,1,.77-.47c.29-.09.54-.17.77-.26a2,2,0,0,0,.6-.34.91.91,0,0,0,.26-.73,1.41,1.41,0,0,0-.64-1.15,2.25,2.25,0,0,0-1.33-.47c-.28,0-.47.07-.55.22a.44.44,0,0,1-.39.21h-.17c-.11-.74-.23-1.5-.34-2.26a21.57,21.57,0,0,0-.43-2.18H212a.94.94,0,0,0-.42.13,1.48,1.48,0,0,0-.35.21h-.34a10,10,0,0,0-.13-1.15,2.43,2.43,0,0,0-.29-1.07c-.29-.68-.73-.94-1.33-.77a6.06,6.06,0,0,1-1.66.26v.6a3.12,3.12,0,0,1-2.14-1,3.71,3.71,0,0,1-1.19-2.1,2.16,2.16,0,0,1-.34.26.88.88,0,0,1-.43.17l-.17-.17c-.11-.11-.17-.2-.17-.26a2.71,2.71,0,0,1-.47-1.19,4.89,4.89,0,0,1,.13-1.37c-.34.23-.64.42-.9.56a2,2,0,0,1-1,.21c-.63,0-.88-.31-.77-.94a9.3,9.3,0,0,0,.17-1.53,4.56,4.56,0,0,1-.94-.18c-.45-.11-.68.15-.68.77,0,.12.13.3.38.56s.39.44.39.55a1.79,1.79,0,0,1-.3.52,5.16,5.16,0,0,1-.47.59h-.34a1.12,1.12,0,0,1-.26-.59,1.14,1.14,0,0,0-.17-.52,1.48,1.48,0,0,0-.51-.17,2.24,2.24,0,0,1-.6-.17,4.14,4.14,0,0,1-1.62-1.71,6.43,6.43,0,0,1-.64-2,10.26,10.26,0,0,1-.09-1.75c0-.49,0-.73,0-.73l-1.11.17-.17.09a1.09,1.09,0,0,0-.21.38,1.24,1.24,0,0,1-.22.38c0,.06,0,.09-.08.09a.24.24,0,0,1-.17.08,3.32,3.32,0,0,0-.34-1.66,4.85,4.85,0,0,0-.86-1l-1-.94a3.53,3.53,0,0,1-.85-1.41c0-.12,0-.46-.05-1s0-.91,0-1a8.75,8.75,0,0,1,.85-4.1,25.62,25.62,0,0,1,1.84-3c.65-.91,1.26-1.77,1.83-2.6a5,5,0,0,0,.86-2.94h2.73a2.36,2.36,0,0,0-.09-.6,3.25,3.25,0,0,1-.08-.69,1,1,0,0,1,.17-.59.76.76,0,0,1,.68-.26c.34,0,.67.3,1,.9a1.57,1.57,0,0,0,1.5.89v.86a1.3,1.3,0,0,1,.43,0c.05,0,.14-.1.25-.38v-3.67a.85.85,0,0,1,.17-.43,2.3,2.3,0,0,1,.26-.34,1.49,1.49,0,0,1,1.15.42,3.32,3.32,0,0,1,.6,1,7.91,7.91,0,0,1,.34,1.19,3,3,0,0,0,.47,1.15c.34-.05.51-.31.51-.77v-.76c0-1-.21-1.55-.64-1.75A20,20,0,0,1,202,195.2v-.34h3a.63.63,0,0,1,.55.34,2.38,2.38,0,0,1,.3.77,8.32,8.32,0,0,1,.13.85,6.64,6.64,0,0,1,0,.68h1.2l.77-1.87,2.21,1.11a1.17,1.17,0,0,1,1.11-.86q.69,0,.69.51a.67.67,0,0,0,.42.69c.06.11.17.08.35-.09a.25.25,0,0,1,.17-.08v-1.46a.32.32,0,0,0,.25.09.33.33,0,0,1,.17,0,.41.41,0,0,0,.17,0,.65.65,0,0,1,.43.68,1,1,0,0,1-.21.68,1,1,0,0,0-.22.68v.17l.34.35H214c.45,0,.69-.29.72-.86s0-.94,0-1.11a2.3,2.3,0,0,1,1.33.56,4.59,4.59,0,0,1,1.06,1.06l.39-.38a5.62,5.62,0,0,1,.64-.55l.64-.47a1.24,1.24,0,0,1,.38-.22,1.13,1.13,0,0,1,1,.56,3.9,3.9,0,0,1,.47,1.28,8.57,8.57,0,0,1,.12,1.41,3.3,3.3,0,0,0,.09.94,2.54,2.54,0,0,0,.56.55,2.4,2.4,0,0,1,.55.56v.17a.26.26,0,0,0,.09.17.76.76,0,0,1-.05.21.68.68,0,0,0,0,.21,4.46,4.46,0,0,1-.13.77,4.17,4.17,0,0,1-.21.77h-.17c-.29,0-.47-.07-.56-.21s-.17-.3-.25-.47a1.31,1.31,0,0,0-.47-.47,2.68,2.68,0,0,0-1.28-.22,1.3,1.3,0,0,1-.17.26c-.12.17-.15.29-.09.34a1.23,1.23,0,0,0,.56.17,1.56,1.56,0,0,1,.55.17.78.78,0,0,1,.43.47c0,.2.11.4.17.6a1.35,1.35,0,0,0,.25.51.85.85,0,0,0,.69.22.75.75,0,0,1-.34.59,6.51,6.51,0,0,1-.82.52,4.59,4.59,0,0,0-.81.55,1,1,0,0,0-.34.81,1,1,0,0,0,.43.94,1,1,0,0,1,.43.94.61.61,0,0,0-.09.26v.34a1.32,1.32,0,0,0-.47-.56l-.85-.64a6.18,6.18,0,0,0-.94-.55,2,2,0,0,0-.73-.22.51.51,0,0,0-.47.22.5.5,0,0,1-.47.21h-.17a2.25,2.25,0,0,1-.47-.38l-.68-.69-.68-.68a2.13,2.13,0,0,1-.39-.47,1,1,0,0,1-.3-.55c0-.2-.05-.42-.08-.64a1.22,1.22,0,0,0-.17-.52.7.7,0,0,0-.56-.17c-.28,0-.79.05-1.53.13l-2.35.26-2.35.21c-.74.06-1.25.12-1.53.17a4.53,4.53,0,0,0-1.75.39,1.82,1.82,0,0,0-.82.85,9.41,9.41,0,0,0-.46,1.28,7.48,7.48,0,0,1-.73,1.58c-.4-.11-.53-.23-.38-.34a.48.48,0,0,0,.21-.34,5.7,5.7,0,0,1-1.07-.09,2.34,2.34,0,0,0-.77,0,.53.53,0,0,0-.42.42,4.57,4.57,0,0,0-.13,1.33c0,.63.25.94.77.94a.6.6,0,0,0,.64-.64c0-.43.21-.64.55-.64a10,10,0,0,0,.13,1.41,9.72,9.72,0,0,0,.43,1.75,5.21,5.21,0,0,0,.81,1.49,1.49,1.49,0,0,0,1.19.64h-.08a1,1,0,0,0-.26.17.22.22,0,0,0-.08.17.08.08,0,0,1-.09.09V216a.67.67,0,0,0,.56.68l1.11.38a2.37,2.37,0,0,1,.93.65c.26.28.27.71.05,1.28.11-.23.37-.35.77-.35a.88.88,0,0,1,.89.47,5.51,5.51,0,0,1,.34,1,4.55,4.55,0,0,0,.39,1,1,1,0,0,0,.94.47h.34a1.49,1.49,0,0,1-.47-.94c0-.34,0-.66,0-.94a1.41,1.41,0,0,0-.25-.81,1.88,1.88,0,0,0-1-.64.86.86,0,0,1,.39-.09h.3a2.14,2.14,0,0,1,1.28.43c.4.28.79.6,1.19.94s.79.68,1.16,1a2.91,2.91,0,0,0,1.23.69l1.37.42c.57.17.85.29.85.34l1.88,3.67a1.92,1.92,0,0,1,.13-.55,5.49,5.49,0,0,1,.21-.56l.09-.08h.17l.08.08a10.14,10.14,0,0,1,1.2,2.65l.68-.43a3.35,3.35,0,0,0-.17,1.84,6,6,0,0,0,.64,1.83,5.23,5.23,0,0,0,1.24,1.5,3.55,3.55,0,0,0,1.62.81,14.1,14.1,0,0,1,1.11,1.66,3.68,3.68,0,0,1,.51,1.84,2.54,2.54,0,0,1-.81,1.41c-.54.6-1,.81-1.49.64a3.68,3.68,0,0,1,.68,2.22,9.11,9.11,0,0,1-.21,1.58c-.14.71-.5,1.06-1.07,1.06h-.17a1.16,1.16,0,0,0-.34-.17,1.09,1.09,0,0,1-.43-.25v.42c.06.23.14.57.26,1a5.52,5.52,0,0,1,.17.85l.34.34a4.31,4.31,0,0,0-.43.56c-.17.25-.28.44-.34.55a3.06,3.06,0,0,1-.68,1,4.06,4.06,0,0,0-.77.85.83.83,0,0,0,.77.43v1.11a1.72,1.72,0,0,1-1.32-.64,1.56,1.56,0,0,0-1.16-.64l-.17.08-.77,4.1c0,.11-.11.23-.34.34h-.17a.48.48,0,0,1-.47-.25,2.25,2.25,0,0,1-.17-.52,3.18,3.18,0,0,0-.13-.51c-.05-.17-.2-.25-.42-.25a.84.84,0,0,0-.94.64,9.07,9.07,0,0,0-.26,1.32h-.42a1.25,1.25,0,0,1-1.11-.73l-.69-1.15c-.28.06-.42.17-.42.34v.6c0,.28.07.47.21.55s.21.27.21.56a5.88,5.88,0,0,1-.08.9c-.06.31-.29.47-.69.47a.41.41,0,0,1-.17,0,.54.54,0,0,0-.25,0c.11-.12.11-.36,0-.73a2,2,0,0,0-.34-.72H209a.08.08,0,0,1-.09-.09c-.28,0-.58,0-.89.05s-.47.21-.47.55v.17a1.09,1.09,0,0,0,.38.21,1.49,1.49,0,0,1,.39.22l.08.08a.08.08,0,0,0,.09.09c-.57,0-.91,0-1,.17a.39.39,0,0,0-.08.43,3,3,0,0,1,.12.64,1.14,1.14,0,0,1-.29.81,2.08,2.08,0,0,1-.69.17,3,3,0,0,0-.76.17c-.12,0-.21.11-.26.34a1.26,1.26,0,0,1-.17.43c0,.05,0,.08-.09.08H205a1,1,0,0,1-.94-.47,1.16,1.16,0,0,0-1.11-.47,4.26,4.26,0,0,0-.51.05l-.43,0c-.06,0-.17.13-.34.38s-.32.39-.43.39-.3-.13-.55-.39-.45-.38-.56-.38a3.33,3.33,0,0,0-.64-.21,9.59,9.59,0,0,1-1-.34,7.78,7.78,0,0,0-1-.35C197.17,256.28,196.93,256.2,196.76,256.15Zm-4.78-49a.34.34,0,0,0,0,.68c.17,0,.26-.11.26-.34S192.15,207.15,192,207.15Zm1.71,6.32a.53.53,0,0,0,.38.55,2.45,2.45,0,0,0,.81.13,1.78,1.78,0,0,0,1-.21,1.08,1.08,0,0,0,.29-.9c0-.11,0-.31,0-.6a.53.53,0,0,0-.47-.51.62.62,0,0,1,0,.73,1.47,1.47,0,0,1-.59.47,3.84,3.84,0,0,1-.77.25A2.94,2.94,0,0,1,193.69,213.47Zm.85,2.22a.84.84,0,0,0,.77.42v-.42Zm1.45-.86a.94.94,0,0,1,1,.94,12.16,12.16,0,0,1,.12,1.37,2.61,2.61,0,0,0,1.07-2,21.3,21.3,0,0,0,.13-2.22v-.29c0-.09-.14-.19-.43-.3a1.62,1.62,0,0,1-.42,1.53,2.36,2.36,0,0,1-1.46.69Zm1.11,6.75c-.17,0-.25.12-.25.38s.08.39.25.39.35-.13.35-.39S197.33,221.58,197.1,221.58Zm0-1.11c-.11-.06-.17,0-.17.17s.06.25.17.25a.25.25,0,0,0,.17-.25C197.27,220.52,197.22,220.47,197.1,220.47Zm.77,34.57h.43v-.34h-.43ZM199,201.52a1.2,1.2,0,0,0-.43.76H199Zm.43,50.53c.05-.11,0-.17-.17-.17s-.26.06-.26.17a.27.27,0,0,0,.26.17A.15.15,0,0,0,199.41,252.05Zm0-30.05h.34v-.42Zm1.45,31.93c-.68,0-1.11.11-1.28.34a.54.54,0,0,0,.08.73,3.33,3.33,0,0,0,1.24.72,6.12,6.12,0,0,0,2.18.34c.06,0,0-.11-.17-.34a4.93,4.93,0,0,0-.68-.72c-.29-.26-.57-.5-.86-.73A1.56,1.56,0,0,0,200.86,253.93Zm-1.2-47.21a.76.76,0,0,0,.86.86v-.86Zm.43,49.09c-.17,0-.26.13-.26.38s.09.39.26.39.34-.13.34-.39S200.32,255.81,200.09,255.81Zm.43-50.2h.68v-.34h-.68Zm.34-3c-.17,0-.26.12-.26.38s.09.38.26.38.26-.12.26-.38S201,202.63,200.86,202.63Zm.77,20.82a2.16,2.16,0,0,0,.12.56,4.05,4.05,0,0,0,.22.55.88.88,0,0,0,.51-.76,7.1,7.1,0,0,0,.09-.77,2.92,2.92,0,0,0-.6.08C201.74,223.17,201.63,223.28,201.63,223.45Zm0,29.37c0,.4.11.65.34.77a.59.59,0,0,1,0-.21.69.69,0,0,0,0-.22.66.66,0,0,0-.42-.68Zm.34-31.93c-.17,0-.26.12-.26.35s.09.34.26.34.26-.12.26-.34S202.14,220.89,202,220.89Zm2.22,24.5a11.05,11.05,0,0,1-1,.77c-.57.4-.85.68-.85.86l2.65.76Zm-1.11-43.45c-.12-.05-.17,0-.17.13s.05.21.17.21.17-.12.17-.21S203.19,201.94,203.08,201.94Zm1.11,24.84h.51c0-.22-.17-.45-.51-.68Zm3-2.22c-.12-.05-.17,0-.17.17s.05.26.17.26C207.46,224.71,207.46,224.56,207.18,224.56Zm1.7-26.8a.74.74,0,0,0-.77.47,2.67,2.67,0,0,0-.16.9v.59a6.32,6.32,0,0,0,.89-.59,1.22,1.22,0,0,0,.56-.94.31.31,0,0,0-.35-.35Zm-.59,26.8h.34v-.34h-.34Zm1.11-3.67c-.17,0-.26.12-.26.35s.09.34.26.34.25-.12.25-.34S209.57,220.89,209.4,220.89Zm-.17,7c0,.29.18.49.55.6a2.9,2.9,0,0,0,.73.17,1,1,0,0,0,.34-.34.43.43,0,0,0,.08-.43Zm.17,22.37.34-.43h-.34Zm.34-28.26h.42l-.42-.42Zm.42,4.44.35-.34h-.77Zm.35-2.56c-.17,0-.26.12-.26.34s.09.34.26.34a.3.3,0,0,0,.34-.34A.31.31,0,0,0,210.51,223.88Zm.42,5.12c-.34.29-.51.55-.51.77h.51ZM212,249.83a.75.75,0,0,0-.77.43h1.11C212.38,250,212.27,249.83,212,249.83Zm-.42-23.05h.59a2.75,2.75,0,0,0-.08-.59.8.8,0,0,0-.51-.52Zm.93-4.52c-.17,0-.29.11-.38.34a4.11,4.11,0,0,0-.21.77,3.86,3.86,0,0,0-.09.81v.47a1.47,1.47,0,0,0,.94-.34,1.07,1.07,0,0,0,.43-.86,3.24,3.24,0,0,0-.13-.72A.55.55,0,0,0,212.55,222.26Zm-.17,7.51h.35l-.35-1.11Zm.35-32.27c-.18,0-.26.12-.26.34s.08.35.26.35a.31.31,0,0,0,.34-.35A.31.31,0,0,0,212.73,197.5Zm1.53,25.61c-.11-.11-.17,0-.17.34s.06.49.17.43C214.49,223.48,214.49,223.23,214.26,223.11Zm-.08,9.65a4.15,4.15,0,0,0,.29,1.45,1.21,1.21,0,0,0,1.24.77h.34a6.09,6.09,0,0,1,1-.17,4.19,4.19,0,0,0,.89-.17.26.26,0,0,0,.09-.17c0-.23-.09-.36-.26-.39l-.51-.08a1.26,1.26,0,0,1-.51-.22.76.76,0,0,1-.26-.68c-.4.29-.67.41-.81.39a5.29,5.29,0,0,0-.9-.05,1.89,1.89,0,0,1,.22-1c.14-.23-.1-.48-.73-.77a4.94,4.94,0,0,1,0,.55A5.24,5.24,0,0,0,214.18,232.76Zm.42,8.88c-.11-.06-.17,0-.17.17s.06.25.17.25a.25.25,0,0,0,.17-.25C214.77,241.69,214.72,241.64,214.6,241.64Zm.35-13.75c.05-.11,0-.17-.13-.17s-.22.06-.22.17.13.17.22.17S215,228,215,227.89Zm0,12.3c-.18,0-.26.12-.26.38s.08.38.26.38.34-.12.34-.38S215.17,240.19,215,240.19Zm.42-11.19a1.35,1.35,0,0,0,.68,1.2v-2C215.6,228.23,215.37,228.49,215.37,229Zm.34-30.39c-.17,0-.25.12-.25.34s.08.35.25.35.26-.12.26-.35S215.88,198.61,215.71,198.61Zm0,28.17a.82.82,0,0,0,.77.52v-.52Zm2.73,3.16a3.7,3.7,0,0,0-1.7.39,1.42,1.42,0,0,0-.77,1.4,3.54,3.54,0,0,0,1.58-.46A1.45,1.45,0,0,0,218.44,229.94Zm-1.28-28h.52a.82.82,0,0,0-.52-.77Zm.43,27.06h.34l-.34-.34Zm.34,9h.43v-.77h-.43Zm3.42,2.13a1.42,1.42,0,0,0-.81.26,5.1,5.1,0,0,0-.73.59h.51C221,241,221.35,240.67,221.35,240.1Zm-.77-1.79a.78.78,0,0,0,.43-.68h-.43Zm.34-4.1c-.11-.06-.17,0-.17.17s.06.26.17.26a.28.28,0,0,0,.17-.26A.15.15,0,0,0,220.92,234.21Zm.34,1.54c-.17,0-.25.11-.25.34s.08.34.25.34a.34.34,0,1,0,0-.68Z" transform="translate(0 -143.31)"/><path class="cls-2" d="M268.64,251.88a5.79,5.79,0,0,1-1.67-.08,11.36,11.36,0,0,1-2-.56,10.89,10.89,0,0,1-1.88-.89,3.36,3.36,0,0,1-1.2-1.12v-.42a4.85,4.85,0,0,0-.81-2,6.55,6.55,0,0,0-1.15-1.19c-.4-.32-.77-.6-1.11-.86a2.33,2.33,0,0,1-.77-1,.85.85,0,0,1,0-.47,4,4,0,0,0,0-.6.47.47,0,0,0-.17-.42,1,1,0,0,0-.68-.05,1.43,1.43,0,0,0-.21.52,4.06,4.06,0,0,1-.22.59,2.94,2.94,0,0,1-.68,1.07,10.77,10.77,0,0,1-1.15,1.07,9.33,9.33,0,0,0-1.11,1,1.6,1.6,0,0,0-.47,1.11V248a6.41,6.41,0,0,1,.64-.26,2.41,2.41,0,0,1,.64-.17c.05,0,.13.06.21.17l.21.26v.08a.26.26,0,0,0,.09.18c0,.28-.06.44-.17.47a2.22,2.22,0,0,1-.38,0,.61.61,0,0,0-.39.13c-.11.08-.17.29-.17.64-.06,0-.19.17-.38.51s-.33.51-.39.51-.2-.14-.59-.08a1.39,1.39,0,0,1-.69,0c-.28-.46-.5-.66-.64-.6a2.9,2.9,0,0,1-.9.08,1.74,1.74,0,0,1-1,.73c-.46.14-.92.3-1.41.47a5.72,5.72,0,0,0-1.24.6,1.06,1.06,0,0,0-.51.93h-4.78c-.06.29-.18.43-.38.43h-.64a9.25,9.25,0,0,1-4-.85,3.1,3.1,0,0,1-1.84-3.08c0-.51,0-1,.05-1.36a3.35,3.35,0,0,1,.46-1.37,1.52,1.52,0,0,0-.64-.3,3.08,3.08,0,0,0-.64-.12,3.32,3.32,0,0,0-.64.12,1.66,1.66,0,0,0-.64.3,1.13,1.13,0,0,1,.26.56,2.72,2.72,0,0,1,.09.55,1.53,1.53,0,0,0,0,.3,1.53,1.53,0,0,1,0,.3,1.77,1.77,0,0,1-1.49-.6,3.62,3.62,0,0,1-.69-1.45,7.29,7.29,0,0,1-.21-1.75,5.66,5.66,0,0,0-.17-1.49,1.61,1.61,0,0,0-.17-.43,7.17,7.17,0,0,0-.43-.72c-.17-.26-.33-.5-.47-.73a1.33,1.33,0,0,1-.21-.43,6.88,6.88,0,0,1-.21-.85c-.09-.4-.18-.84-.26-1.32s-.17-.93-.26-1.33a4.88,4.88,0,0,1-.12-.85,3,3,0,0,0,.46-.34,1.57,1.57,0,0,0,.39-.43v-.08a2.34,2.34,0,0,0-.21-1,1.8,1.8,0,0,1-.22-.85,2.39,2.39,0,0,1,.26-1,.83.83,0,0,1,.77-.56h.25a.68.68,0,0,1,.3.34,1,1,0,0,1,.13.43l.77-.34a1.34,1.34,0,0,0-.77-.69c-.34-.11-.67-.21-1-.29a3.69,3.69,0,0,1-.86-.35.76.76,0,0,1-.38-.72.48.48,0,0,1,.26-.47,1.77,1.77,0,0,1,.59-.17,2,2,0,0,0,.6-.17c.17-.09.26-.3.26-.64h2.64v-.77l-2.13-.85v-.52a3.63,3.63,0,0,1,.56-2.3,2.76,2.76,0,0,1,1.28-.94,6.94,6.94,0,0,1,1.4-.34,1.13,1.13,0,0,0,.94-.6,1.24,1.24,0,0,1-.38-.13.7.7,0,0,1-.39-.3l-.08-.17a1.14,1.14,0,0,1,.47-1.06,3.07,3.07,0,0,1,1.11-.43l1.28-.26a2.36,2.36,0,0,0,1-.38q.09,0,.09-.6a1.52,1.52,0,0,0-.09-.51c.11-.11.36-.33.73-.64a3.21,3.21,0,0,0,.64-.64v-.68l-.86-1.2v-.43a1.73,1.73,0,0,1,.39-.42,2.17,2.17,0,0,1,.47-.34l.17-.09.17.09a1.4,1.4,0,0,1,.34.25c.11.12.17.2.17.26h3.33a.82.82,0,0,0,.17.43c.11.17.23.25.34.25a2.35,2.35,0,0,0,1.79-.43,8.08,8.08,0,0,0,1.11-1.15,6.2,6.2,0,0,1,1.24-1.15,3.28,3.28,0,0,1,2.09-.43,3.59,3.59,0,0,1,1.2.64c.62.43,1.31.91,2.05,1.45l2.13,1.58c.68.52,1.17.86,1.45,1a2.32,2.32,0,0,1,.77.81,6.6,6.6,0,0,1,.6,1.28,9.42,9.42,0,0,1,.38,1.36,2.49,2.49,0,0,1,.05,1,1.21,1.21,0,0,1,.81.47,8.19,8.19,0,0,1,.55.81,5.6,5.6,0,0,0,.51.72,1,1,0,0,0,.77.3,1.25,1.25,0,0,0,.09.77c.11.34.24.71.38,1.11s.29.77.43,1.11a2.28,2.28,0,0,1,.21.77v.51l.17.17a.34.34,0,0,0,.26.09v.25a.79.79,0,0,0,.08.26,3.44,3.44,0,0,1-1.53-.34,3.2,3.2,0,0,0-1.45-.35c0,.06.07.4.21,1s.33.94.55.94h3.33c.12,0,.14.11.09.34a4.3,4.3,0,0,1-.3.77c-.14.28-.27.55-.38.81s-.15.44-.09.55l.85,2.82c.12.46.37.66.77.6s.63.17.69.68a1.63,1.63,0,0,1-.39.68c-.25.35-.36.6-.3.77a1.13,1.13,0,0,0,.43.69c.23.17.45.32.68.47a3.41,3.41,0,0,1,.64.51.66.66,0,0,1,.22.64l-.26,1.79c0,.11.11.26.34.43a4.43,4.43,0,0,0,.81.47,9.59,9.59,0,0,1,.9.47,1.49,1.49,0,0,1,.51.42.17.17,0,0,0,0,.13.32.32,0,0,1,.05.21c.11.35.22.8.34,1.37a2.29,2.29,0,0,0,.34,1c.05.12.37.29.94.52l1.92.76c.71.29,1.41.6,2.09.95a5.86,5.86,0,0,1,1.45.93c-.51.12-.81.3-.9.56a1.69,1.69,0,0,0,0,.81c.06.29.11.58.17.9a1,1,0,0,1-.25.85,2.8,2.8,0,0,1-1.41.64,14.79,14.79,0,0,1-3.2.26,1.05,1.05,0,0,1-.77-.26,2.88,2.88,0,0,1-.43-.56,7.17,7.17,0,0,1-.34-.68A1.67,1.67,0,0,0,268.64,251.88Zm-32.7-12.12a4,4,0,0,1,.81,1.49,2.29,2.29,0,0,0,.9,1.33L239,243a4.08,4.08,0,0,0,.94.22l.85.08c.28,0,.65,0,1.11,0a4,4,0,0,0,1.19-.12,2.18,2.18,0,0,0,.6-.34l.56-.47a4.21,4.21,0,0,1,1.06-.6,5.3,5.3,0,0,1,1.07-.22,4.88,4.88,0,0,0,1.07-.21,3.82,3.82,0,0,0,1.79-1.88c.51-1,.91-1.76,1.19-2.39a1,1,0,0,1,.77-.55,4.54,4.54,0,0,0,.94-.3v-.34a3.15,3.15,0,0,0-.51-.34c-.28-.17-.43-.32-.43-.43s.15-.33.43-.64.46-.47.51-.47a38.45,38.45,0,0,0,1.16-5.16,33.28,33.28,0,0,0,.46-5.08,2.72,2.72,0,0,0-.51-1.75,3,3,0,0,0-1.36-.94,7.6,7.6,0,0,0-1.84-.39c-.65-.05-1.32-.08-2-.08a4.09,4.09,0,0,0-1.23.51c-.66.34-1.34.73-2.05,1.15s-1.35.83-1.92,1.2a10,10,0,0,0-.94.64,5,5,0,0,1-.17.81,5.46,5.46,0,0,1-.26.81,3,3,0,0,0-.42.17.36.36,0,0,1-.26.09.21.21,0,0,0-.17.08L239,227.64c-.06,0-.09,0-.09.08v.17a.57.57,0,0,0,.26.56c.17.08.25.35.25.81a8.78,8.78,0,0,1,0,1,3.55,3.55,0,0,1-.17.77c-.09.26-.19.55-.3.9s-.25.76-.43,1.28a3.3,3.3,0,0,1-1,1.66,4.83,4.83,0,0,1-1.41.81c-.48.17-.9.3-1.24.39s-.51.24-.51.47a1.08,1.08,0,0,0,.43,1,2.56,2.56,0,0,0,1,.34l1.15.17a.85.85,0,0,1,.73.6,2.93,2.93,0,0,1-.77.68A2.67,2.67,0,0,1,235.94,239.76Zm5.13,5.12c.11-.11.05-.17-.18-.17s-.31.06-.25.17a.25.25,0,0,0,.25.17C241,245.05,241.07,245,241.07,244.88Zm.85-.77c-.23,0-.34.13-.34.39s.11.38.34.38.34-.13.34-.38S242.15,244.11,241.92,244.11Zm.43-22.28h.42v-.42h-.42Zm3.41,22.28a4.65,4.65,0,0,1,.6-.47.87.87,0,0,0,.42-.72h-1Zm4.18-30.47c.06-.12,0-.17-.17-.17s-.25.05-.25.17a.47.47,0,0,0,.29.17C249.9,213.81,249.94,213.75,249.94,213.64Zm-.42,29.28h.42v-.34h-.42Zm.42,1.19c-.22,0-.34.13-.34.39s.12.38.34.38.43-.13.43-.38S250.23,244.11,249.94,244.11Zm.86-6.06a.45.45,0,0,0,.38.51,3.23,3.23,0,0,0,.73.09h.68l-.43-1.54a6.9,6.9,0,0,0-.85.3A.69.69,0,0,0,250.8,238.05Zm.42-24.07c-.17,0-.25.13-.25.38s.08.39.25.39.34-.13.34-.39S251.45,214,251.22,214ZM256,241.81h.77V241H256Z" transform="translate(0 -143.31)"/><path class="cls-2" d="M283.83,249.15a7.29,7.29,0,0,1,.18-1,8.41,8.41,0,0,0,.17-1c0-.12-.17-.33-.52-.64s-.51-.53-.51-.64.17-.29.51-.52l.52-.34v-.85a9.1,9.1,0,0,0-1-4.06A12.82,12.82,0,0,1,282,236q-.43-3-.69-5.76t-.25-5.85v-5.72a9.18,9.18,0,0,1,.38-1.92,3.75,3.75,0,0,1,.9-1.58,5.69,5.69,0,0,1,1.11,1.46c.4.68.82,1,1.28.85a2.82,2.82,0,0,0,.64-.39,7.83,7.83,0,0,1,.72-.46h.6a2.53,2.53,0,0,1,1.49.38,14.13,14.13,0,0,1,1.33,1.07,12.7,12.7,0,0,1,.13,1.53c0,.74.07,1.53.12,2.35a15.28,15.28,0,0,0,.35,2.39,4,4,0,0,0,.76,1.75.26.26,0,0,0,.18.09h.42a2.9,2.9,0,0,0,.56-.09c.25-.06.38-.25.38-.6a2.77,2.77,0,0,0-.77-1.75,2.81,2.81,0,0,1-.77-1.83,1.49,1.49,0,0,1,.35-.73c.22-.31.48-.64.76-1a6.23,6.23,0,0,1,.86-.85,1.24,1.24,0,0,1,.6-.34l.17.08h.08c.06,0,.13.06.21.17s.16.17.22.17h.17a.68.68,0,0,0,.68-.34,2,2,0,0,0,.21-.81c0-.31.05-.63.05-.94a1.24,1.24,0,0,1,.17-.72,8.5,8.5,0,0,1,.85-.69l1-.77h.25c.34,0,.53.2.56.6s.38.6,1.06.6a2.46,2.46,0,0,0,1.88-.85,10.9,10.9,0,0,0,1.33-1.84c.37-.65.69-1.27,1-1.84s.57-.85.85-.85a2.73,2.73,0,0,1,1.24.34c.43.23.87.47,1.32.73s.9.51,1.33.77a3.53,3.53,0,0,0,1.15.47,4.91,4.91,0,0,0,1.24,0l1.15,0a2.77,2.77,0,0,1,.64.51l1.19,1.11,1.2,1.11.64.6.25,5.72-.25.51a15.48,15.48,0,0,1,1.36,1.36,2.5,2.5,0,0,1,.43,1.63,1.8,1.8,0,0,1-.26,1.15,2.49,2.49,0,0,0-.25,1.41,7,7,0,0,0,.25,1.92,6.28,6.28,0,0,1,.26,1.83v.43c0,.06-.08.17-.26.34a1.18,1.18,0,0,0-.25.17,1.48,1.48,0,0,0,.17.56,1,1,0,0,0,.34.47,5.64,5.64,0,0,0,1.28-.39c.29-.14.43-.47.43-1a.85.85,0,0,0-.3-.73.72.72,0,0,1-.3-.64c0-.11.21-.39.64-.85s.91-.94,1.45-1.45,1.06-1,1.54-1.5a9.9,9.9,0,0,0,.9-1A18.64,18.64,0,0,1,324,225a29.81,29.81,0,0,1,2.13-2.26,23.76,23.76,0,0,1,2.31-2,3.52,3.52,0,0,1,1.92-.85h.51l.39.34a.84.84,0,0,0,.46.26,2,2,0,0,0,1.11-.39,5.43,5.43,0,0,0,1.11-.94,6.48,6.48,0,0,0,.9-1.23,2.62,2.62,0,0,0,.38-1.28,3.41,3.41,0,0,0,.94.46,9.74,9.74,0,0,0,1.11.39.61.61,0,0,0,.17.43l.17.17a.7.7,0,0,0,.43-.22,1.23,1.23,0,0,0,.34-.38v-.17l-.08-.09h-.43a4.94,4.94,0,0,1,.6-2.94,5.36,5.36,0,0,1,2.82-1.24,3.56,3.56,0,0,1,1.32.94c.42.46.84.92,1.24,1.41a16.81,16.81,0,0,0,1.15,1.28,1.55,1.55,0,0,0,1.06.55.84.84,0,0,0,.48-.25c.19-.17.29-.29.29-.34h.43c.34,0,.63.22.85.68a8.36,8.36,0,0,1,.6,1.62,16.38,16.38,0,0,1,.39,1.84,11.05,11.05,0,0,1,.12,1.23,15.84,15.84,0,0,1-.64,4.44,16.21,16.21,0,0,0-.64,4.44q0,.35.6.6l.68.34a5.07,5.07,0,0,0-.47.64c-.2.31-.32.53-.38.64l-.17.17c0,.12,0,.17.09.17s0,.09.08.09a3.18,3.18,0,0,0,.38.51c.2.23.36.34.47.34a1.4,1.4,0,0,1-.21.56,1.37,1.37,0,0,0-.21.55v4a9.6,9.6,0,0,0,.08,1.33,13.4,13.4,0,0,0,.26,1.36,17.72,17.72,0,0,0,.51,1.75,1.77,1.77,0,0,0,.43.73,2.57,2.57,0,0,1,.42.64,1.75,1.75,0,0,1-.21.6.68.68,0,0,1-.64.42c0,.12,0,.39-.08.81a7.76,7.76,0,0,0-.09,1,2.92,2.92,0,0,0,.43,1.67,9,9,0,0,0,.89,1.15c.32.34.61.66.9.94a1.54,1.54,0,0,1,.43,1.11h-.6a4.24,4.24,0,0,0-.9-.51,2.91,2.91,0,0,0-1-.34,3.39,3.39,0,0,0-.9.34,2.26,2.26,0,0,0-.81.51h-.51a3.17,3.17,0,0,1-2.65-1.88,20.08,20.08,0,0,1-1.92-4.74,57.64,57.64,0,0,1-1.36-6.14q-.56-3.28-1-6.15c-.31-1.9-.61-3.48-.89-4.73s-.6-1.88-.94-1.88h-.26a10.6,10.6,0,0,1-1.24,1.19c-.65.57-1.12,1-1.4,1.28a5.6,5.6,0,0,0-.9.9,9.48,9.48,0,0,0-.81,1h-.43a1.16,1.16,0,0,1-.81-.21,1.5,1.5,0,0,0-1-.22,8.67,8.67,0,0,0,.17,1.8,6.88,6.88,0,0,1,.17,1.45,3.84,3.84,0,0,1-.25,1.36,5.34,5.34,0,0,1-1,1.54h-.51a5.47,5.47,0,0,1-.26-.73l-.25-.81v-.51c0-.28-.12-.43-.35-.43a1.36,1.36,0,0,0-.46.13c-.21.09-.3.19-.3.3v2.22l.76.6a.59.59,0,0,1-.12.34.39.39,0,0,1-.3.17,1.17,1.17,0,0,1-.69-.26,1.84,1.84,0,0,1-.59-.25,1.79,1.79,0,0,0-1,.38,1.06,1.06,0,0,0-.56.81.22.22,0,0,0,.09.17c0,.06,0,.09.08.09s.37.11.6.17a2.17,2.17,0,0,1,.77.34l.17.17.17.17c0,1.2-.39,1.9-1.15,2.09a13.58,13.58,0,0,1-2.52.39,3.49,3.49,0,0,0-.26-1.32.87.87,0,0,0-.85-.64,1.58,1.58,0,0,0-1.45,1.06,4.37,4.37,0,0,0-.52,1.75,1.73,1.73,0,0,0,.69,1.41,2,2,0,0,1,.68,1.67,3.21,3.21,0,0,1-.94,2.73,6.16,6.16,0,0,1-2.22,1q-1.28.3-2.52.72a3.1,3.1,0,0,0-1.83,1.88h-.51c-.06-.06-.22-.21-.47-.47a3,3,0,0,0-.56-.47h-.25c0,.06-.1.15-.3.26s-.3.23-.3.34h-.43l-.26-.51-.16-.34a3.28,3.28,0,0,1,.16-.6,2.46,2.46,0,0,1,.26-.51.66.66,0,0,1,.09-.26.84.84,0,0,0,.08-.34c0-.8,0-1.75,0-2.86s-.1-2.23-.21-3.37-.26-2.23-.43-3.29a9.13,9.13,0,0,0-.77-2.6c-.28-.57-.54-1-.77-1.41a9.65,9.65,0,0,1-.6-1.15,8.34,8.34,0,0,1-.42-1.28,7.81,7.81,0,0,1-.17-1.88v-2.31a1.59,1.59,0,0,1,.25-.47,1.64,1.64,0,0,0,.26-.46,4.87,4.87,0,0,0-.34-1.46c-.23-.62-.37-.94-.43-.94h-1.28a1.32,1.32,0,0,0,.34-.85v-1.88a5.32,5.32,0,0,0-.47.3.91.91,0,0,1-.47.21.48.48,0,0,1-.47-.38c-.08-.26-.18-.55-.29-.9s-.25-.66-.39-1a.9.9,0,0,0-.64-.55c-.34-.12-.77.08-1.28.6a9.92,9.92,0,0,0-1.45,1.87c-.46.74-.9,1.47-1.32,2.18s-.73,1.18-.9,1.41a6.46,6.46,0,0,1-.68.77c-.34.34-.52.54-.52.6a6.31,6.31,0,0,1-.72.25,2.16,2.16,0,0,0-.73.34v.34a4.16,4.16,0,0,1,.47.3l.39.3-1.71,1.71a1.58,1.58,0,0,1,.81,0,.6.6,0,0,1,.39.64.93.93,0,0,1-.39.9.94.94,0,0,0-.38.89c0,.46.13.67.38.64s.39.13.39.47v.17a3.5,3.5,0,0,1-1.2,1,1.66,1.66,0,0,0-.94,1.49,1.61,1.61,0,0,0,.26.9,1.55,1.55,0,0,1,.25.89,4.38,4.38,0,0,1-1.28,3.55,5.3,5.3,0,0,1-3.5,1.06c0,.17,0,.5,0,1s0,1,0,1.5,0,1,0,1.45,0,.77,0,.94a4.12,4.12,0,0,1,0,.51,4.53,4.53,0,0,1-.17.77,2.6,2.6,0,0,1-.34.73.67.67,0,0,1-.56.29h-.17a2.1,2.1,0,0,1-.55-.12,2.27,2.27,0,0,0-.47-.13h-.09a2.26,2.26,0,0,0-1.36.51,5.42,5.42,0,0,1-1.11.68h-.26a2.42,2.42,0,0,1-2.22-.94,4.71,4.71,0,0,1-.6-2.56Zm.86-26.29c0,1.25,0,2.42,0,3.5s.13,1.62.3,1.62.24-.3.21-.9-.08-1.23-.17-1.92-.17-1.28-.25-1.79S284.69,222.69,284.69,222.86Zm.77,27.74c-.12-.11-.17,0-.17.43s0,.54.17.42a.51.51,0,0,0,.25-.46A.37.37,0,0,0,285.46,250.6Zm.94-2.39a2.75,2.75,0,0,0,.34,1.2,1.15,1.15,0,0,0,1.11.68c.28,0,.45-.26.51-.77s.08-.82.08-.94,0-.24,0-.55,0-.53,0-.64a2.8,2.8,0,0,1-.77.3,3.28,3.28,0,0,0-.68.21.45.45,0,0,0-.34.21A.58.58,0,0,0,286.4,248.21Zm6.31-13.15h.51v-.68h-.51Zm1.11-12.29a7.57,7.57,0,0,0,.34,2,2.88,2.88,0,0,0,.94,1.62c.06-.05.34-.28.86-.68a3.51,3.51,0,0,0,.76-.68,1.32,1.32,0,0,0-.42-.09c-.29,0-.43,0-.43-.08a2.11,2.11,0,0,0-.68-1.41A1.92,1.92,0,0,0,293.82,222.77Zm2.39-4a4,4,0,0,0,.09.9,1.69,1.69,0,0,0,.51.81q0-.09.21-.3c.14-.14.22-.24.22-.3v-.43a6.44,6.44,0,0,0-.22-.94,4.93,4.93,0,0,1-.21-1c-.34.11-.53.3-.56.55S296.21,218.53,296.21,218.76Zm3.76-.09c-.17,0-.24.09-.22.26a1.26,1.26,0,0,0,.22.51,5.61,5.61,0,0,0,.38.51.59.59,0,0,0,.47.26c.17,0,.11-.26-.17-.77S300.14,218.67,300,218.67Zm.34-.59h.51v-.6h-.51ZM315.42,236a4.56,4.56,0,0,1-.34.77,4.54,4.54,0,0,0-.26.6l1.71.38,1.71.39-2-2.73a1.06,1.06,0,0,0-.55.17A.48.48,0,0,0,315.42,236Zm-.17-4.78c-.12-.05-.17,0-.17.26s.05.34.17.34S315.36,231.51,315.25,231.22Zm3,2.31a.43.43,0,0,1,0,.85c-.23,0-.35-.14-.35-.43S318,233.53,318.24,233.53Zm7.59-8.37c-.17,0-.25.16-.25.47s.08.47.25.47.43-.15.43-.47S326.12,225.16,325.83,225.16Zm.86,4.78c-.06-.11-.09-.07-.09.13s0,.27.09.21.25-.12.25-.21S326.86,229.94,326.69,229.94Zm1.11-6.74c-.12,0-.14.11-.09.34a5.23,5.23,0,0,0,.3.81,3.11,3.11,0,0,0,.51.81c.2.23.36.34.47.34a1.21,1.21,0,0,0,.51-1.83,1.43,1.43,0,0,0-.76-.56A1.09,1.09,0,0,0,327.8,223.2Zm.94,8.62c.05-.23-.05-.34-.3-.34s-.36.11-.3.34.17.17.34.17S328.74,231.94,328.74,231.82Zm5.72-5.21c-.23,0-.35.15-.35.43s.12.43.35.43.34-.14.34-.43S334.68,226.61,334.46,226.61Zm4-.17a4,4,0,0,0-.64.09l-.86.17c-.25.06-.47.11-.64.17s-.2.08-.08.08a2.8,2.8,0,0,0,.47-.08l.81-.17c.28-.06.52-.11.73-.17S338.52,226.44,338.47,226.44Zm7.43-.94a3.17,3.17,0,0,0,1.57-.17c.37-.17.57-.38.6-.64a.79.79,0,0,0-.43-.72,3.8,3.8,0,0,0-1.58-.52c-.11,0-.15.12-.12.35a5.48,5.48,0,0,1,0,.72v.68C346,225.4,346,225.5,345.9,225.5Zm.93,10.5a1.45,1.45,0,0,0,.22.47c.14.26.27.39.38.39v-1.8a4.47,4.47,0,0,0-.38.47A.9.9,0,0,0,346.83,236Zm2.39,15.45V251h-.42Z" transform="translate(0 -143.31)"/><path class="cls-2" d="M364.42,249.15a6.55,6.55,0,0,1,.17-1,8.41,8.41,0,0,0,.17-1c0-.12-.17-.33-.51-.64s-.52-.53-.52-.64.18-.29.52-.52l.51-.34v-.85a9.22,9.22,0,0,0-1-4.06,12.59,12.59,0,0,1-1.24-4.14c-.29-2-.51-3.91-.68-5.76s-.26-3.8-.26-5.85v-5.72a9.87,9.87,0,0,1,.38-1.92,3.75,3.75,0,0,1,.9-1.58,5.69,5.69,0,0,1,1.11,1.46c.4.68.82,1,1.28.85a2.61,2.61,0,0,0,.64-.39,6.39,6.39,0,0,1,.73-.46h.59a2.57,2.57,0,0,1,1.5.38,14.18,14.18,0,0,1,1.32,1.07,10.87,10.87,0,0,1,.13,1.53c0,.74.07,1.53.13,2.35a15.29,15.29,0,0,0,.34,2.39,3.9,3.9,0,0,0,.77,1.75.22.22,0,0,0,.17.09H372a2.79,2.79,0,0,0,.56-.09c.26-.06.38-.25.38-.6a2.75,2.75,0,0,0-.76-1.75,2.76,2.76,0,0,1-.77-1.83,1.45,1.45,0,0,1,.34-.73c.23-.31.48-.64.77-1a5.68,5.68,0,0,1,.85-.85,1.24,1.24,0,0,1,.6-.34l.17.08h.08c.06,0,.13.06.22.17s.15.17.21.17h.17a.68.68,0,0,0,.68-.34,2.19,2.19,0,0,0,.22-.81c0-.31,0-.63,0-.94a1.32,1.32,0,0,1,.17-.72,8.5,8.5,0,0,1,.85-.69l1-.77h.25c.35,0,.53.2.56.6s.38.6,1.07.6a2.47,2.47,0,0,0,1.88-.85,10.31,10.31,0,0,0,1.32-1.84c.37-.65.69-1.27,1-1.84s.57-.85.85-.85a2.7,2.7,0,0,1,1.24.34c.43.23.87.47,1.32.73s.9.51,1.33.77a3.53,3.53,0,0,0,1.15.47,4.91,4.91,0,0,0,1.24,0l1.15,0a2.56,2.56,0,0,1,.64.51l1.2,1.11,1.19,1.11.64.6.26,5.72-.26.51a15.89,15.89,0,0,1,1.37,1.36,2.57,2.57,0,0,1,.42,1.63,1.88,1.88,0,0,1-.25,1.15,2.46,2.46,0,0,0-.26,1.41,7,7,0,0,0,.26,1.92,6.62,6.62,0,0,1,.25,1.83v.43c0,.06-.08.17-.25.34a1.3,1.3,0,0,0-.26.17,1.7,1.7,0,0,0,.17.56,1.06,1.06,0,0,0,.34.47,5.64,5.64,0,0,0,1.28-.39c.29-.14.43-.47.43-1a.85.85,0,0,0-.3-.73.72.72,0,0,1-.3-.64c0-.11.22-.39.64-.85s.91-.94,1.46-1.45,1.05-1,1.53-1.5a9.9,9.9,0,0,0,.9-1,20.77,20.77,0,0,1,1.32-1.66c.66-.77,1.37-1.52,2.14-2.26a22.55,22.55,0,0,1,2.3-2,3.52,3.52,0,0,1,1.92-.85h.51l.39.34a.86.86,0,0,0,.47.26,2.07,2.07,0,0,0,1.11-.39,5.71,5.71,0,0,0,1.11-.94,6.44,6.44,0,0,0,.89-1.23,2.64,2.64,0,0,0,.39-1.28,3.11,3.11,0,0,0,.94.46,9.1,9.1,0,0,0,1.11.39.57.57,0,0,0,.17.43l.17.17a.71.71,0,0,0,.42-.22,1.11,1.11,0,0,0,.34-.38v-.17l-.08-.09h-.43a4.94,4.94,0,0,1,.6-2.94,5.45,5.45,0,0,1,2.82-1.24,3.56,3.56,0,0,1,1.32.94c.43.46.84.92,1.24,1.41s.78.91,1.15,1.28a1.57,1.57,0,0,0,1.07.55.85.85,0,0,0,.47-.25c.2-.17.3-.29.3-.34h.42c.35,0,.63.22.86.68a9.11,9.11,0,0,1,.59,1.62,14.42,14.42,0,0,1,.39,1.84,11.89,11.89,0,0,1,.13,1.23,16.21,16.21,0,0,1-.64,4.44,15.84,15.84,0,0,0-.64,4.44c0,.23.19.43.59.6l.69.34a4.23,4.23,0,0,0-.47.64c-.2.31-.33.53-.39.64l-.17.17c0,.12,0,.17.09.17s0,.09.08.09a3.43,3.43,0,0,0,.39.51c.2.23.35.34.47.34a1.46,1.46,0,0,1-.22.56,1.37,1.37,0,0,0-.21.55v4a9.58,9.58,0,0,0,.09,1.33,13.22,13.22,0,0,0,.25,1.36c.12.49.28,1.07.51,1.75a1.77,1.77,0,0,0,.43.73,2.81,2.81,0,0,1,.43.64,1.85,1.85,0,0,1-.22.6.68.68,0,0,1-.64.42c0,.12,0,.39-.08.81a7.76,7.76,0,0,0-.09,1,2.92,2.92,0,0,0,.43,1.67,8.19,8.19,0,0,0,.9,1.15c.31.34.61.66.89.94a1.5,1.5,0,0,1,.43,1.11h-.6a4.07,4.07,0,0,0-.89-.51,3,3,0,0,0-1-.34,3.26,3.26,0,0,0-.89.34q-.73.35-.81.51H428a3.15,3.15,0,0,1-2.64-1.88,20.08,20.08,0,0,1-1.92-4.74,57.58,57.58,0,0,1-1.37-6.14q-.56-3.28-1-6.15c-.32-1.9-.62-3.48-.9-4.73s-.6-1.88-.94-1.88H419a10.22,10.22,0,0,1-1.23,1.19c-.66.57-1.13,1-1.41,1.28a6.09,6.09,0,0,0-.9.9,9.48,9.48,0,0,0-.81,1h-.42a1.21,1.21,0,0,1-.82-.21,1.5,1.5,0,0,0-1-.22,8.67,8.67,0,0,0,.17,1.8,6.28,6.28,0,0,1,.17,1.45,3.84,3.84,0,0,1-.25,1.36,5,5,0,0,1-1,1.54h-.51a5.47,5.47,0,0,1-.26-.73l-.25-.81v-.51c0-.28-.12-.43-.34-.43a1.4,1.4,0,0,0-.47.13q-.3.13-.3.3v2.22l.77.6a.6.6,0,0,1-.13.34.39.39,0,0,1-.3.17,1.12,1.12,0,0,1-.68-.26,1.81,1.81,0,0,1-.6-.25,1.82,1.82,0,0,0-1,.38,1.06,1.06,0,0,0-.56.81.22.22,0,0,0,.09.17c0,.06,0,.09.08.09l.6.17a2.08,2.08,0,0,1,.77.34l.17.17.17.17c0,1.2-.38,1.9-1.15,2.09a13.58,13.58,0,0,1-2.52.39,3.48,3.48,0,0,0-.25-1.32.89.89,0,0,0-.86-.64,1.58,1.58,0,0,0-1.45,1.06,4.33,4.33,0,0,0-.51,1.75,1.72,1.72,0,0,0,.68,1.41,2,2,0,0,1,.68,1.67,3.21,3.21,0,0,1-.94,2.73,6.11,6.11,0,0,1-2.21,1,26.06,26.06,0,0,0-2.52.72,3.09,3.09,0,0,0-1.84,1.88h-.51l-.47-.47a3,3,0,0,0-.56-.47H394c0,.06-.1.15-.3.26s-.3.23-.3.34H393l-.25-.51-.17-.34a2.89,2.89,0,0,1,.17-.6A2,2,0,0,1,393,251a.66.66,0,0,1,.09-.26.72.72,0,0,0,.09-.34c0-.8,0-1.75-.05-2.86s-.1-2.23-.21-3.37-.26-2.23-.43-3.29a9.13,9.13,0,0,0-.77-2.6c-.28-.57-.54-1-.76-1.41a7.32,7.32,0,0,1-1.2-4.31v-2.31a1.77,1.77,0,0,1,.26-.47,1.48,1.48,0,0,0,.25-.46,4.58,4.58,0,0,0-.34-1.46c-.23-.62-.37-.94-.43-.94h-1.28a1.34,1.34,0,0,0,.35-.85v-1.88a3.42,3.42,0,0,0-.47.3,1,1,0,0,1-.47.21.47.47,0,0,1-.47-.38c-.09-.26-.19-.55-.3-.9a10.52,10.52,0,0,0-.39-1,.88.88,0,0,0-.64-.55c-.34-.12-.77.08-1.28.6a10.35,10.35,0,0,0-1.45,1.87l-1.32,2.18q-.65,1.06-.9,1.41a5.64,5.64,0,0,1-.68.77q-.51.51-.51.6a7.69,7.69,0,0,1-.73.25,2,2,0,0,0-.72.34v.34a5.32,5.32,0,0,1,.47.3l.38.3-1.71,1.71a1.57,1.57,0,0,1,.81,0,.6.6,0,0,1,.39.64.93.93,0,0,1-.39.9.94.94,0,0,0-.38.89c0,.46.13.67.38.64s.39.13.39.47v.17a3.4,3.4,0,0,1-1.2,1,1.68,1.68,0,0,0-.94,1.49,1.61,1.61,0,0,0,.26.9,1.55,1.55,0,0,1,.26.89,4.38,4.38,0,0,1-1.29,3.55,5.29,5.29,0,0,1-3.49,1.06c0,.17,0,.5,0,1s0,1,0,1.5,0,1,0,1.45.05.77.05.94a4.67,4.67,0,0,1-.05.51,4.53,4.53,0,0,1-.17.77,2.35,2.35,0,0,1-.34.73.67.67,0,0,1-.55.29h-.18a2.19,2.19,0,0,1-.55-.12,2.12,2.12,0,0,0-.47-.13H370a2.27,2.27,0,0,0-1.37.51,5.42,5.42,0,0,1-1.11.68h-.26a2.42,2.42,0,0,1-2.22-.94,4.8,4.8,0,0,1-.59-2.56Zm.85-26.29c0,1.25,0,2.42,0,3.5s.13,1.62.3,1.62.24-.3.22-.9-.09-1.23-.18-1.92-.17-1.28-.25-1.79S365.27,222.69,365.27,222.86ZM366,250.6c-.12-.11-.17,0-.17.43s.05.54.17.42a.52.52,0,0,0,.26-.46A.37.37,0,0,0,366,250.6Zm.94-2.39a2.75,2.75,0,0,0,.34,1.2,1.17,1.17,0,0,0,1.11.68c.28,0,.45-.26.51-.77s.09-.82.09-.94,0-.24,0-.55,0-.53,0-.64a2.8,2.8,0,0,1-.77.3,3.28,3.28,0,0,0-.68.21.46.46,0,0,0-.34.21A.58.58,0,0,0,367,248.21Zm6.32-13.15h.51v-.68h-.51Zm1.1-12.29a7.63,7.63,0,0,0,.35,2,2.88,2.88,0,0,0,.93,1.62l.86-.68a3.76,3.76,0,0,0,.77-.68,1.37,1.37,0,0,0-.43-.09c-.29,0-.43,0-.43-.08a2.07,2.07,0,0,0-.68-1.41A1.92,1.92,0,0,0,374.4,222.77Zm2.39-4a4,4,0,0,0,.09.9,1.86,1.86,0,0,0,.51.81c0-.06.07-.16.22-.3s.21-.24.21-.3v-.43a5.82,5.82,0,0,0-.21-.94,4.53,4.53,0,0,1-.22-1c-.34.11-.52.3-.55.55A6.4,6.4,0,0,0,376.79,218.76Zm3.76-.09c-.17,0-.24.09-.21.26a1.38,1.38,0,0,0,.21.51,4.33,4.33,0,0,0,.39.51.57.57,0,0,0,.46.26c.18,0,.12-.26-.17-.77S380.72,218.67,380.55,218.67Zm.34-.59h.51v-.6h-.51ZM396,236a3.76,3.76,0,0,1-.34.77,6.43,6.43,0,0,0-.26.6l1.71.38,1.71.39-2-2.73a1.06,1.06,0,0,0-.56.17A.48.48,0,0,0,396,236Zm-.17-4.78c-.11-.05-.17,0-.17.26s.06.34.17.34S396,231.51,395.83,231.22Zm3,2.31a.43.43,0,1,1,0,.85c-.23,0-.34-.14-.34-.43S398.59,233.53,398.82,233.53Zm7.6-8.37c-.17,0-.26.16-.26.47s.09.47.26.47.42-.15.42-.47S406.7,225.16,406.42,225.16Zm.85,4.78c-.06-.11-.08-.07-.08.13s0,.27.08.21.26-.12.26-.21S407.44,229.94,407.27,229.94Zm1.11-6.74c-.11,0-.14.11-.09.34a5.23,5.23,0,0,0,.3.81,3.13,3.13,0,0,0,.52.81c.19.23.35.34.47.34a1.3,1.3,0,0,0,.72-.94,1.33,1.33,0,0,0-.21-.89,1.45,1.45,0,0,0-.77-.56A1.1,1.1,0,0,0,408.38,223.2Zm.94,8.62c.05-.23,0-.34-.3-.34s-.36.11-.3.34a.34.34,0,0,0,.34.17C409.23,232,409.32,231.94,409.32,231.82Zm5.72-5.21c-.23,0-.34.15-.34.43s.11.43.34.43.34-.14.34-.43S415.27,226.61,415,226.61Zm4-.17a4.16,4.16,0,0,0-.64.09c-.31.06-.6.11-.85.17a6.27,6.27,0,0,0-.64.17c-.17.06-.2.08-.09.08a2.65,2.65,0,0,0,.47-.08l.81-.17c.29-.06.53-.11.73-.17S419.11,226.44,419.05,226.44Zm7.43-.94a3.21,3.21,0,0,0,1.58-.17c.37-.17.57-.38.59-.64a.8.8,0,0,0-.42-.72,3.85,3.85,0,0,0-1.58-.52c-.12,0-.16.12-.13.35a5.48,5.48,0,0,1,0,.72v.68C426.56,225.4,426.53,225.5,426.48,225.5Zm.94,10.5a1.57,1.57,0,0,0,.21.47c.14.26.27.39.38.39v-1.8a4.47,4.47,0,0,0-.38.47A1,1,0,0,0,427.42,236Zm2.39,15.45V251h-.43Z" transform="translate(0 -143.31)"/><path class="cls-2" d="M453.88,253.84a3.25,3.25,0,0,0-.68-1.28,1.24,1.24,0,0,0-1.11-.51,1.64,1.64,0,0,0-1,.51,1.63,1.63,0,0,1-1.06.52,1.72,1.72,0,0,1-1.33-.17,1.77,1.77,0,0,1-.64-.9,7.06,7.06,0,0,1-.25-1.32c-.06-.52-.12-1-.17-1.46a8.26,8.26,0,0,1-1.24.26c-.43.06-.61.4-.56,1a4.89,4.89,0,0,0-1.66-1.71,3.53,3.53,0,0,0-2.26-.77,17.19,17.19,0,0,0-.22-1.84,10.6,10.6,0,0,0-.38-1.83,7.46,7.46,0,0,0-.09-1c-.05-.43-.11-.83-.17-1.2s-.11-.86-.17-1.49c0-.46,0-1.31,0-2.56s0-2.58,0-4,0-2.72,0-4,0-2.14,0-2.65a15.94,15.94,0,0,0,.17-2.52,9,9,0,0,1,.26-2.34c-.06-.12,0-.3.3-.56s.38-.41.38-.47a10.59,10.59,0,0,0,0-1.66c0-.49,0-.94,0-1.37a3.93,3.93,0,0,1,.35-1.32,4.87,4.87,0,0,1,1.06-1.45v-.09c0-.05,0-.08.05-.08s0,0,0-.09l.34.17c.11,0,.24.1.38.3s.27.27.39.21a1.71,1.71,0,0,0,.77.05,1.56,1.56,0,0,0,.68-.13l1.28,2.47a1.32,1.32,0,0,0,.43.09.63.63,0,0,0,.25.09.21.21,0,0,1,.17.08l.09.09a.29.29,0,0,0,.08.17l-.08.08a3.05,3.05,0,0,1,0,.39,3.43,3.43,0,0,0-.05.47,2.67,2.67,0,0,1,1.24-.26,4.37,4.37,0,0,1,1.37.21,3.24,3.24,0,0,1,1.15.69,1.9,1.9,0,0,1,.6,1.23,1,1,0,0,1-.47.94,12.91,12.91,0,0,1-1.28.86c-.49.28-.94.57-1.37.85s-.67.54-.72.77a.65.65,0,0,0,.12.85,4.25,4.25,0,0,0,1,.64,13.22,13.22,0,0,1,1.19.64,1,1,0,0,1,.56.86.75.75,0,0,1-.39.72,2.81,2.81,0,0,1-.81.3l-.93.21a1.14,1.14,0,0,0-.77.64.93.93,0,0,0,.12.9c.2.31.42.61.65.9s.42.55.59.81a.75.75,0,0,1,.17.64.93.93,0,0,1-.51.64,5.89,5.89,0,0,1-.68.21,1.29,1.29,0,0,0-.6.34,1.12,1.12,0,0,0-.17.94,1.27,1.27,0,0,0,.3.81.89.89,0,0,0,.72.39c.4-.06.54-.19.43-.39s-.06-.52.17-1h.17l.17-.08c.06,0,.12.05.17.17a.63.63,0,0,1,.09.25,2.3,2.3,0,0,1-.13,1.33,2.06,2.06,0,0,1-.51.51,1.92,1.92,0,0,0-.51.55,2.19,2.19,0,0,0,0,1.37,2.78,2.78,0,0,1,1,0c.17.06.4-.06.68-.34v.08a4.11,4.11,0,0,1-.17,2,3.82,3.82,0,0,0-.17,2,2.27,2.27,0,0,0,.34,1.16,3.23,3.23,0,0,0,1.28.64,4.1,4.1,0,0,1,1.62-.56,18.12,18.12,0,0,0,1.84-.34,6.47,6.47,0,0,0,1.62-.6,2,2,0,0,0,1-1.23c.12.05.27.14.47.25a1,1,0,0,0,.47.17h.09a2.06,2.06,0,0,0,1-.3,2,2,0,0,1,.72-.3l.35.09a.38.38,0,0,1,.17,0,.52.52,0,0,0,.25,0,.88.88,0,0,0,.34.08c.06,0,.07,0,.05-.13s.35-.18,1.15-.3a1.52,1.52,0,0,1-.51.09h-.52l.09-.09a.82.82,0,0,1,.38.13.77.77,0,0,0,.3.13,6.87,6.87,0,0,0,.3-.77,7.82,7.82,0,0,1,.3-.77,1.2,1.2,0,0,0,.55-.25,1.62,1.62,0,0,1,.48-.26,5.9,5.9,0,0,0,.21-.64,5.14,5.14,0,0,0,.13-.55h.17c.57,0,.85.2.85.59a.17.17,0,0,1,0,.13.17.17,0,0,0,0,.13v.26a3.75,3.75,0,0,0-.39.55c-.2.31-.27.53-.21.64a5.08,5.08,0,0,0,0,.56c0,.25.06.55.09.89a8,8,0,0,0,.12.94c.06.29.12.51.17.68a.87.87,0,0,1-.55.64,7.42,7.42,0,0,1-.77.22,2,2,0,0,0-.64.25c-.17.12-.23.35-.17.69a.53.53,0,0,0,.68.51.08.08,0,0,0,.09-.09,8.43,8.43,0,0,0,1.24-.68l1.06-.68.26.42-.68,1.07c-.34.54-.72,1.11-1.11,1.71s-.79,1.14-1.15,1.62-.64.73-.82.73a1.81,1.81,0,0,1-.51.08c-.34,0-.51-.08-.51-.25a3.21,3.21,0,0,1,.08-.43,2.26,2.26,0,0,0,.09-.51v-.17a.33.33,0,0,0,0-.17.6.6,0,0,1,0-.26,1.53,1.53,0,0,0-.29-.85,1.78,1.78,0,0,0-.64-.6l-1,1.28.94.68a.89.89,0,0,1-.6.64,2.15,2.15,0,0,0-.85.64,6.76,6.76,0,0,0-.56,1.41,7.68,7.68,0,0,1-.25.9,1.07,1.07,0,0,1-.56.55,4.67,4.67,0,0,1-1.53.3,5.69,5.69,0,0,1-1.45.13A8.39,8.39,0,0,1,453.88,253.84ZM446.28,210a1.69,1.69,0,0,0-.47.21,1.57,1.57,0,0,1-.47.21h-.25a.27.27,0,0,1-.3,0c-.09,0-.13-.11-.13-.17a20,20,0,0,1-1.67-3.5,14.94,14.94,0,0,1-.89-3.58,4,4,0,0,1,.34-1c.23-.54.5-1.1.81-1.67a17,17,0,0,1,1-1.58c.34-.48.6-.72.77-.72l.77.12,1.49.3q.81.18,1.62.3A8.07,8.07,0,0,0,450,199l.34.34.34.34a2.7,2.7,0,0,0,.35.43c.11-.28.27-.44.47-.47a3.6,3.6,0,0,0,.72-.21.61.61,0,0,1,.51.21,1.81,1.81,0,0,1,.3.51,4,4,0,0,0,.26.51.48.48,0,0,0,.47.22,3.34,3.34,0,0,1,.34-.3c.17-.14.28-.21.34-.21a.24.24,0,0,0,.17-.09.17.17,0,0,0,.13,0,.17.17,0,0,1,.13,0,3,3,0,0,1-.17,1.79l.68-.09q0,.18-.09.9c-.05.48-.08.81-.08,1a4.71,4.71,0,0,0,.43.85,3.5,3.5,0,0,0,.51.77,6.27,6.27,0,0,0-.26.77,10.2,10.2,0,0,1-.43,1.24,8.24,8.24,0,0,1-.59,1.19,1,1,0,0,1-.77.56l-.39,0a3.47,3.47,0,0,0-.46,0,2.48,2.48,0,0,1-.69-.17,1.59,1.59,0,0,0-.42-.08,4.53,4.53,0,0,0-1,.55l-.76.6a4.34,4.34,0,0,1-.86.51,4.24,4.24,0,0,1-1.24.3c-.51.12-.85,0-1-.38A.81.81,0,0,0,446.28,210Zm-1-9.05c-.12.06-.16.2-.13.42s.1.32.21.26.24-.11.22-.34S445.43,200.92,445.26,200.92Zm3.92,17.5c.17,0,.27.13.3.38s0,.39-.21.39-.36-.13-.39-.39S449,218.42,449.18,218.42Zm4.27-15.54c.12-.11.09-.17-.08-.17s-.23.06-.17.17,0,.26.12.26S453.45,203.05,453.45,202.88Zm.09,47.81c-.12,0-.17.08-.17.25s.05.23.17.17S453.65,250.86,453.54,250.69ZM454,246v-.51l-.42.17Zm2.48,6.74c0-.11-.07-.17-.21-.17s-.22.06-.22.17C456.3,253,456.44,253,456.44,252.73Zm2-4.69a2.85,2.85,0,0,0-1.28.43,1.23,1.23,0,0,0-.59.81,1,1,0,0,0,.29.89,2.71,2.71,0,0,0,1.33.69c.05,0,.12-.16.21-.47a5.27,5.27,0,0,0,.17-1,5.33,5.33,0,0,0,0-1C458.5,248.1,458.46,248,458.4,248Zm7.69-9.9c.11-.06.18,0,.21,0a.19.19,0,0,1,0,.21c-.12.12-.2.1-.26,0S466,238.14,466.09,238.14Z" transform="translate(0 -143.31)"/><path class="cls-2" d="M493.4,253.42a1.53,1.53,0,0,0-.3.55,2.5,2.5,0,0,0-.12.47c0-.23-.09-.34-.26-.34l-.85,0a2.16,2.16,0,0,1-.86,0,5.81,5.81,0,0,1-.85-.26l-1.2-.42a.63.63,0,0,1-.25-.09l-.34-.17H488l-.17.17a.22.22,0,0,1-.17.09l-.17.08-.08-.08a1,1,0,0,0-.09-.64,1.73,1.73,0,0,0-.34-.64,1.84,1.84,0,0,0-.81-.34,4,4,0,0,0-.81-.17v-.77l-1.37.94s-.08,0-.25-.22a2.76,2.76,0,0,1-.35-.47c-.11-.11-.12-.34,0-.68s0-.54-.3-.6c-.28.12-.42.26-.42.43v.51a.75.75,0,0,1-.17.47c-.12.14-.4.21-.86.21a3,3,0,0,1-2-.42,1.4,1.4,0,0,1-.43-1c0-.39,0-.78,0-1.15a.67.67,0,0,0-.56-.73,4.49,4.49,0,0,0-.94-.17c-.51,0-.88-.08-1.11-.08l.43-.77a3,3,0,0,1-1.45-.51,4.2,4.2,0,0,1-1-1.07c-.28-.43-.55-.88-.81-1.36s-.5-.93-.72-1.33a4.37,4.37,0,0,1-.43-.6l-.51-.76a6.84,6.84,0,0,1-1.37-2.31c-.17-.62-.4-1.39-.68-2.3l-.17-.17-.17-.17c-.06-.23-.13-.69-.22-1.37s-.13-1.11-.13-1.28v-.6a3.31,3.31,0,0,1,.18-1.11,3.88,3.88,0,0,0,.17-1.19v-.43a.91.91,0,0,0-.17-.34.9.9,0,0,1-.18-.34v-1.54c0-.23,0-.64.09-1.24s.14-1.22.26-1.88a6.42,6.42,0,0,1,.51-1.7c.23-.49.51-.73.85-.73a1.39,1.39,0,0,1-.17.73,1.3,1.3,0,0,0-.17.64c.23,0,.57,0,1,.08a.84.84,0,0,0,.93-.34,4.71,4.71,0,0,0,.26-.68,3.83,3.83,0,0,0,.17-.6h.26v.77a1.55,1.55,0,0,1,.51.13c.23.08.37.1.43,0l.17-.17.17-.17a3.89,3.89,0,0,0,.72-.13,1.88,1.88,0,0,0,.64-.21v-.43a3.74,3.74,0,0,0-.42-1.75,3.8,3.8,0,0,1-.43-1.83,2.42,2.42,0,0,1,.94.17,2.58,2.58,0,0,0,.94.17c.34,0,.54-.12.6-.34a.58.58,0,0,0-.56-.43,1.7,1.7,0,0,1-.73-.17l-.08-.17a1.84,1.84,0,0,1,.34-.9,3.5,3.5,0,0,0,.43-.9l.47,0a4.94,4.94,0,0,1,.55,0l1.07.08q.9.09.9.6a.91.91,0,0,1-.17.34.9.9,0,0,0-.18.34v.26a9.71,9.71,0,0,0,1.63-.17,2,2,0,0,0,1.36-.77,2,2,0,0,0,.3-1c.09-.54.27-.81.56-.81,0,.57.31.85.94.85a5.57,5.57,0,0,0,.64,0,.72.72,0,0,0,.55-.3.74.74,0,0,0,0-.51l-.17-.34h-1.2c.12,0,.2-.07.26-.22a.94.94,0,0,0,.09-.29,2.79,2.79,0,0,0-.09-.56c-.06-.26-.14-.38-.26-.38a.26.26,0,0,0,.18-.09l.17.09a1.59,1.59,0,0,1,.47.25,4.68,4.68,0,0,0,.55.34,4.21,4.21,0,0,0,.85.22,1.11,1.11,0,0,1,.86.47,10.81,10.81,0,0,1,.25,1.36,2.18,2.18,0,0,0,.69,1.28.38.38,0,0,0,.17,0,.33.33,0,0,1,.17,0v-.69l.17.09H489l.39.38c.2.2.32.3.38.3H490a5.06,5.06,0,0,0,.9-.13,3.89,3.89,0,0,0,.81-.21v-.17c0-.28-.19-.47-.56-.55a1.77,1.77,0,0,1-.73-.3l-.08-.09a.29.29,0,0,1,.08-.17,5.32,5.32,0,0,1,.3-.47q.23-.3.3-.3a1.9,1.9,0,0,1,.69.34,7.72,7.72,0,0,0,.68.43h.08c.63,0,1-.21,1.11-.64a1.93,1.93,0,0,1,.77-1.07,4.68,4.68,0,0,1,.51.69,4.46,4.46,0,0,0,.52.68c.05,0,.11.09.17.26a.81.81,0,0,0,.17.34l.17.08.08-.08c.06,0,.14-.06.26-.17a.24.24,0,0,1,.17-.09v-2.73l.6-.26a5,5,0,0,0,0,2,9.56,9.56,0,0,0,.64,2l.51-.26v-3.15a.29.29,0,0,0,.17.08.58.58,0,0,1,.18,0,.34.34,0,0,0,.17.05.22.22,0,0,1,.25.25,2.15,2.15,0,0,1,.3,1,8.26,8.26,0,0,1,.13,1.07h.34l.34-.34a1.56,1.56,0,0,0,.34-.43h2.9a2.44,2.44,0,0,0-.38.73,2.8,2.8,0,0,0-.21.72c-.06.06,0,.16,0,.3a1.74,1.74,0,0,0,.21.3,1.57,1.57,0,0,0,.82.26c.42.05.72.08.89.08a.36.36,0,0,1-.38.26,4.78,4.78,0,0,0-.64,0,2.51,2.51,0,0,0-.73.22,1.12,1.12,0,0,0-.55.85,4.45,4.45,0,0,0-.17-.9,6.49,6.49,0,0,0-.26-.81,2.26,2.26,0,0,0-.09-.51,2,2,0,0,0-.17-.51c-.17-.29-.3-.39-.38-.3a.87.87,0,0,1-.56.13,3.68,3.68,0,0,0,.35,1.79,3.59,3.59,0,0,1,.34,1.71h-.6l-.17.34,1,1c.06.06.1.06.13,0a.14.14,0,0,1,.13-.08v-.26l-.17-.34a.72.72,0,0,1-.09-.34.22.22,0,0,1,.09-.17l.17-.17h.26a.74.74,0,0,1,.76.64,1.59,1.59,0,0,1,0,1.06c.18-.56.4-.91.69-1a4,4,0,0,1,1.36-.17v1.62a6.21,6.21,0,0,0,1.24-.08,1.68,1.68,0,0,1,1.07.34,1.11,1.11,0,0,0-.3.08l-.39.17v.26c0,.45.29.74.86.85a6.59,6.59,0,0,0,1.28.17.08.08,0,0,1-.09.09l-.21.43c-.09.17-.16.25-.21.25a.81.81,0,0,1-.34-.08,1.66,1.66,0,0,0-.35-.13.49.49,0,0,1-.25-.13l-.34-.17-.35-.17a1,1,0,0,0-.34.13,1.26,1.26,0,0,0-.34.21,10,10,0,0,1,1.71,2.05,1,1,0,0,1-.9.3,3,3,0,0,0-1-.13.57.57,0,0,0-.08.26v.17a5.85,5.85,0,0,0,.29.51c.15.23.25.37.3.43a2.81,2.81,0,0,0,.56.55c.31.26.47.41.47.47a2,2,0,0,1-.26.77,1.41,1.41,0,0,1-.43.6c-.05-.29-.28-.43-.68-.43a1.32,1.32,0,0,0-.34,0c-.11,0-.2.16-.26.39a.4.4,0,0,1,.35.42v.6a1,1,0,0,1-.26.81,1.52,1.52,0,0,1-.64.3,4.07,4.07,0,0,1-.9.08,4.62,4.62,0,0,0-.94.09.45.45,0,0,0-.3.68.45.45,0,0,1-.29.69,1.26,1.26,0,0,0-.47-.6,1.78,1.78,0,0,0-.64-.09c-.63,0-1,.15-1.16.43a1.18,1.18,0,0,1-.72.6l-.68-.34a3.91,3.91,0,0,1-.52-.34,3.35,3.35,0,0,0-.51-.35l-.25.35.25.34a2.67,2.67,0,0,0-.43,1c-.05.31-.11.61-.17.89a2.68,2.68,0,0,1-.29.82,1.74,1.74,0,0,1-.82.64,1.38,1.38,0,0,0,0-1.16.93.93,0,0,0-.94-.55.75.75,0,0,0-.64.3,3.46,3.46,0,0,0-.38.72,1,1,0,0,0,0-.25,1.09,1.09,0,0,1,0-.26,1,1,0,0,1,0-.3.59.59,0,0,0,0-.21,1.93,1.93,0,0,1,.17-.47,2.09,2.09,0,0,0,.17-.47.3.3,0,0,0-.34-.34h-.51a2.84,2.84,0,0,0-1.15.34c-.49.23-.73.48-.73.77a.26.26,0,0,0,.09.17,1.09,1.09,0,0,0,.51.38,1.14,1.14,0,0,1,.51.39c.06,0,.06.37,0,.94a2.59,2.59,0,0,0,0,1,.66.66,0,0,0,.09.26l.17.34v.08a.21.21,0,0,0,.08.17q-.68.44-1.11.69a5.58,5.58,0,0,1-.85.42,2.2,2.2,0,0,1-.51.17,1.24,1.24,0,0,1,.42-1,1.22,1.22,0,0,0,.43-1q0-.69-.3-.69h-.9a1.71,1.71,0,0,0,.09.47,1.69,1.69,0,0,1,.08.47,8.9,8.9,0,0,1-.42,1.2,2.83,2.83,0,0,0-.26.76h-.17a4.36,4.36,0,0,0-.13-.85.5.5,0,0,0-.72-.43,8.38,8.38,0,0,0-1.33.22,10,10,0,0,0-1.4.38.9.9,0,0,1-.26.17l-.34.17h-.51a2,2,0,0,0-.86-1.62c0,.06-.11.09-.34.09v1.62c-.4,0-.64-.23-.72-.68s-.33-.69-.73-.69a5.69,5.69,0,0,1-.09.81,7.08,7.08,0,0,0-.08.81,1.86,1.86,0,0,0,.26.69,1.51,1.51,0,0,0,.42.6l.51.17a2.93,2.93,0,0,0,.77.17l2.27.47a16.92,16.92,0,0,1,2.09.55,8.47,8.47,0,0,0,2,.47,6.82,6.82,0,0,1,2,.56c.17,0,.43.15.77.29s.51.25.51.3a1.29,1.29,0,0,1,.17.52,1.28,1.28,0,0,0,.17.51,2.89,2.89,0,0,1,.6.17,2.85,2.85,0,0,0,.77.17h.34a2.21,2.21,0,0,0,.89-.17,2.13,2.13,0,0,1,.9-.17,5.49,5.49,0,0,1,1.62.21,6,6,0,0,0,1.71.21c0,.46.11.73.34.81a2.07,2.07,0,0,0,.77.13q.68,0,.81-.21a.61.61,0,0,1,.55-.21c.23,0,.37,0,.43.17a.79.79,0,0,1,.09.38,1,1,0,0,0,.08.39c.06.11.2.17.43.17.4,0,.55-.19.47-.56s.07-.55.47-.55a.63.63,0,0,1,.21,0,.69.69,0,0,0,.22,0,.87.87,0,0,0,.42.09,1.81,1.81,0,0,1,.51.08,2.72,2.72,0,0,0,.69.09.62.62,0,0,1,.34.6q0,.42.51.42h.09l1.7-1.62h3l-.25.34a1.1,1.1,0,0,0,1.06.64,1.55,1.55,0,0,1,1.24.64l-.77.43a7.62,7.62,0,0,1-.08,1.11,7.81,7.81,0,0,0-.13,1c0,.37,0,.67,0,.9s-.12.44-.17.47a1.71,1.71,0,0,1-.52,0v.43h.94v1.7h-.08c-.12,0-.17,0-.17-.08s-.12,0-.17-.13-.12-.13-.18-.13a3.24,3.24,0,0,0-.68-.43l-.68-.34-.17.09a1,1,0,0,0,.08.51.29.29,0,0,0,.22.09.46.46,0,0,1,.21,0q.09,0,.09.3a1,1,0,0,1-1,1h-.43a2.78,2.78,0,0,0-.94-.17,4.34,4.34,0,0,1-1-.17h-.34l-.17.17a.24.24,0,0,0-.09.17,2.26,2.26,0,0,0-.51.09,2.79,2.79,0,0,1-.51.08v-1.19a6.42,6.42,0,0,0-3,1v-1.53a.24.24,0,0,0-.17-.09h-.17a1.3,1.3,0,0,0-.21.47,1.92,1.92,0,0,0-.13.55h-1.62l-.43.6c0-.06-.09-.17-.26-.34a3,3,0,0,1-.68-.17,2.43,2.43,0,0,0-.6-.09c-.11-.11-.08-.27.09-.46a.89.89,0,0,0,.25-.47l-.51,0-.51,0-.17.17-.17.17-.68,0-.69.05v-.86a1.68,1.68,0,0,0-.17.26c-.06.11-.11.17-.17.17h-.25c-.06,0-.15-.06-.26-.17s-.17-.2-.17-.26h-.34a1.31,1.31,0,0,0-.6.73c-.11.31-.21.63-.3.94a3.34,3.34,0,0,1-.3.77.48.48,0,0,1-.43.3c-.28,0-.45-.09-.51-.26a3.88,3.88,0,0,1-.13-.6,3,3,0,0,0-.12-.6c-.06-.17-.26-.25-.6-.25Zm-23-28.86c-.17,0-.26.1-.26.3s.09.3.26.3.17-.1.17-.3S470.55,224.56,470.44,224.56Zm3,3c-.17,0-.26.1-.26.3s.09.3.26.3.17-.1.17-.3S473.54,227.55,473.43,227.55Zm.25-1.7a.88.88,0,0,0-.34.76.84.84,0,0,0,.77-.42Zm0,5.71c.06-.11,0-.17-.12-.17s-.19.06-.13.17.11.17.17.17S473.68,231.68,473.68,231.56Zm1.45-8c-.28,0-.48.2-.59.6a3.37,3.37,0,0,0-.17.77,2.31,2.31,0,0,0,.76-.35q.6-.33.6-.51v-.17a1.23,1.23,0,0,0-.34-.25A.61.61,0,0,0,475.13,223.54Zm.26,1.28c-.11-.06-.17.07-.17.38s.06.45.17.39a.54.54,0,0,0,.17-.39A.55.55,0,0,0,475.39,224.82Zm2.22,10.07a.52.52,0,0,1-.13.34.32.32,0,0,0,0,.35c.06,0,.16.08.3.25a1.23,1.23,0,0,0,.38.34c.23,0,.34-.27.34-.64v-.72a2,2,0,0,0-.21-1,2.06,2.06,0,0,1-.21-1,1.23,1.23,0,0,1,.21-.73.74.74,0,0,1,.64-.3h.17c0,.06.1.19.3.38s.33.3.38.3h.35a1.18,1.18,0,0,1,.25-.17l.34-.17a2.72,2.72,0,0,1,.73-.13c.37,0,.58-.09.64-.21a1.64,1.64,0,0,0,.17-.64,1.64,1.64,0,0,1,.17-.64,3.35,3.35,0,0,0,.56-.17,2.39,2.39,0,0,1,.72-.17H484a2.66,2.66,0,0,1,.52.17,2.46,2.46,0,0,0,.51.17,2.57,2.57,0,0,0,1.41-.6,7.47,7.47,0,0,1,1.23-.77,3.8,3.8,0,0,0,.39,1.11,1,1,0,0,0,.89.35l.73,0a.79.79,0,0,0,.72-.38l.6-2.65c.29-.11.7-.25,1.24-.42a4.19,4.19,0,0,1,1.24-.26h.17c.11.06.3.17.55.34a3.92,3.92,0,0,1,.47.34H495c.06,0,.13-.05.22-.17a.59.59,0,0,0,.13-.25,6.12,6.12,0,0,0,.21-.94,9.44,9.44,0,0,0,.13-1,10,10,0,0,0,1.15-.13,7.33,7.33,0,0,0,1.15-.21,5,5,0,0,0,1-.17,2.59,2.59,0,0,1,.68-.09v-2.73c0,.23.09.34.26.34a5.28,5.28,0,0,0,.85.69,1.38,1.38,0,0,0,.51.34l.34-.34a9.78,9.78,0,0,1-.94-1.92,4.08,4.08,0,0,0-1.36-1.75q-.44-.34-1.41-1a3.24,3.24,0,0,0-1.49-.64,2.84,2.84,0,0,0-1.63.47c-.45.32-.91.66-1.36,1a11,11,0,0,1-1.5,1,3.87,3.87,0,0,1-2,.47h-.26a2.19,2.19,0,0,1-.72-.3,3.78,3.78,0,0,1-.64-.38H488a2.5,2.5,0,0,1-.12.47,4.7,4.7,0,0,1-.22.55l-.68.69a1.3,1.3,0,0,1-.26.17.36.36,0,0,1-.25.08h-.09l-.34.39-.34.38c-.11,0-.34,0-.68,0a1.49,1.49,0,0,0-.69,0c-.05,0-.12.14-.21.43a2.5,2.5,0,0,0-.13.51c0,.06,0,.11-.12.17l-.22.17-.26-.34a6.46,6.46,0,0,0-3,4.35.56.56,0,0,0-.86.17c-.22.35-.4.6-.51.77a3,3,0,0,1-.17.69,3,3,0,0,0-.17.68h-.6l-.68-1.62s0,.17,0,.34a2.58,2.58,0,0,0,0,.43,2.34,2.34,0,0,0,.22,1.1,2.56,2.56,0,0,1,.21,1.11.33.33,0,0,1,0,.17.39.39,0,0,0,0,.18v.25c-.06.12-.23.22-.52.3a.83.83,0,0,1-.59,0v2.31h-.86v.42a2.13,2.13,0,0,0,.9-.17A2.5,2.5,0,0,1,477.61,234.89Zm-.94,2c.06-.12,0-.17-.13-.17s-.18.05-.13.17.12.17.18.17S476.67,237,476.67,236.86Zm-.26-16.31c0,.06,0,.12.13.17s.13.12.13.17a6,6,0,0,1,.73.09,5.24,5.24,0,0,0,.72.08c0-.56-.17-.85-.51-.85h-.17a1.5,1.5,0,0,0-.51.13C476.7,220.42,476.53,220.5,476.41,220.55Zm1,1c-.17,0-.26.1-.26.3s.09.29.26.29.17-.09.17-.29S477.55,221.58,477.44,221.58Zm.17-4.87a1.16,1.16,0,0,0,.51,1,1.91,1.91,0,0,0,1,.34c0-.63-.12-1-.34-1.16A2.46,2.46,0,0,0,477.61,216.71Zm.77,22.11c-.12,0-.17.11-.17.34s.05.34.17.34.25-.11.25-.34S478.55,238.82,478.38,238.82Zm.68-4c-.17,0-.25.13-.25.38s.08.39.25.39.26-.13.26-.39S479.23,234.81,479.06,234.81Zm0-15.62a.3.3,0,0,0,.34.34.5.5,0,0,0,.39-.47c0-.26,0-.44,0-.56a1.2,1.2,0,0,0-.51.13.48.48,0,0,0-.26.47Zm0,5.37c0,.17.11.26.34.26v-.26c0-.05,0-.12-.17-.21s-.17-.16-.17-.21v.42Zm1.37,23.91a.3.3,0,0,0-.34.34v.34c.28-.11.58-.21.89-.3a.66.66,0,0,0,.47-.73c0-.05,0-.08,0-.08s0,0,0-.09v-.08a3,3,0,0,0-.64-.43l-.64-.34-.35.34-.08.17v.17c0,.06,0,.09.08.09s.09.17.26.34A.7.7,0,0,0,480.43,248.47Zm-.34,1.36c-.17,0-.26.1-.26.3s.09.3.26.3.25-.1.25-.3S480.26,249.83,480.09,249.83Zm0-28.25h.34v-1h-.34Zm.34,11.95c.05-.12,0-.17-.13-.17s-.21,0-.21.17,0,.17.12.17S480.37,233.64,480.43,233.53Zm0,16.9c-.12,0-.17.07-.17.21s.05.22.17.22C480.71,250.74,480.71,250.6,480.43,250.43Zm.25-30.9c.06-.12,0-.17-.12-.17s-.19,0-.13.17.11.17.17.17S480.68,219.64,480.68,219.53Zm-.25,26.89H481v-.26h-.59Zm.94,4.44c.05-.12,0-.17-.13-.17s-.22.05-.22.17a.33.33,0,0,0,.22.08C481.32,250.94,481.37,250.91,481.37,250.86Zm.34-1.45c-.17,0-.26.12-.26.38s.09.38.26.38.25-.12.25-.38S481.88,249.41,481.71,249.41Zm0-7.94h.34v-.34h-.34Zm.34-23.91c-.17,0-.26.12-.26.35s.09.34.26.34.26-.12.26-.34S482.22,217.56,482.05,217.56Zm.34.35c-.17,0-.26.11-.26.34s.09.34.26.34.26-.11.26-.34S482.56,217.91,482.39,217.91Zm.34,4.26c-.17,0-.25.12-.25.35s.08.34.25.34.26-.12.26-.34S482.9,222.17,482.73,222.17Zm0,26h.68l-.17-.17a.25.25,0,0,0-.17-.08l-.17-.09a.26.26,0,0,0-.17.09Zm.68-30.56a.71.71,0,0,0,0,.52,4.24,4.24,0,0,0,.21.51H484l1-.34v-.17a1.66,1.66,0,0,0-.3-.9,1.53,1.53,0,0,0-.73-.64,3.11,3.11,0,0,1-.34.51A1.08,1.08,0,0,0,483.41,217.56ZM485,248a1.49,1.49,0,0,0-.73.17.63.63,0,0,0-.3.6h1Zm.68-.17v.38a.83.83,0,0,0,.09.39l.17.51h.42V247C486,247,485.72,247.3,485.72,247.87Zm.26-30.31c-.12,0-.17.12-.17.35s.05.34.17.34a.31.31,0,0,0,.34-.34A.31.31,0,0,0,486,217.56Zm0,3.68c-.12,0-.17.1-.17.29s.05.3.17.3.34-.1.34-.3S486.2,221.24,486,221.24Zm.68-5.47a.76.76,0,0,0-.68.51h.68Zm-.26,5.12c.12-.34.2-.62.26-.85a3.45,3.45,0,0,0,.08-.85v-.52a.39.39,0,0,0-.34-.42Zm1,16.22.25-.25H487Zm.94,8.37c-.17,0-.26.11-.26.34s.09.34.26.34.25-.11.25-.34S488.54,245.48,488.37,245.48Zm.34-9.65c.05-.11,0-.17-.13-.17s-.21.06-.21.17C488.48,236.17,488.59,236.17,488.71,235.83Zm0,15.62c.05-.11,0-.17-.13-.17s-.21.06-.21.17C488.48,251.8,488.59,251.8,488.71,251.45Zm0-32.86.6.9a1,1,0,0,0,.85.38h.51c.17,0,.29-.11.34-.34-.05,0-.11-.06-.17-.17s-.11-.17-.17-.17a3,3,0,0,1-.47-.13,2,2,0,0,1-.47-.21c-.06,0-.11-.1-.17-.3s-.11-.3-.17-.3H489l-.17.17A.27.27,0,0,0,488.71,218.59ZM490,246.84c.05-.11,0-.17-.3-.17s-.36.06-.3.17a.34.34,0,0,0,.34.18C489.9,247,490,247,490,246.84Zm1,.35a1,1,0,0,0,.69-.35H491Zm1-17h.34v-.34H492Zm.68,2.3v-.34h-.34Zm-.26-4.78a4.17,4.17,0,0,0,.09.73,5.49,5.49,0,0,0,.26.94,3.74,3.74,0,0,0,.42.85.79.79,0,0,0,.69.39l.08-.09.17-.17.17-.17a2.36,2.36,0,0,0,.09-.85v-.86a1.09,1.09,0,0,0-.77.34,3.82,3.82,0,0,0-.43-.77A.91.91,0,0,0,492.46,227.72Zm1.46-11.52a4.94,4.94,0,0,0,0,.55.48.48,0,0,0,.38.47.3.3,0,0,0,.34-.34v-.17a.4.4,0,0,0-.25-.43A1.81,1.81,0,0,0,493.92,216.2Zm.08,15.36h.34v-.42H494Zm.68,15.54a3.47,3.47,0,0,1,1.28,1,.34.34,0,0,0,.26-.08l.17-.17c0-.12,0-.36,0-.73s.05-.61.05-.72a1.86,1.86,0,0,0-.9.25A7.29,7.29,0,0,1,494.68,247.1Zm0,5.72h.43a.76.76,0,0,0-.43-.68Zm.94-4.1a5.41,5.41,0,0,0,.09.94c.05.34.28.51.68.51h.26a6.42,6.42,0,0,0-.26-1A.73.73,0,0,0,495.62,248.72Zm.26-16.9c0,.12,0,.36,0,.73s.18.58.47.64.43-.27.43-.64v-.73Zm.51,2.73v-.68l-.43.26Zm-.08-8.53a.24.24,0,0,0,.08.17.26.26,0,0,0,.09.17l.17.17a.92.92,0,0,1,.85-.77,2.6,2.6,0,0,1,1.2.09.57.57,0,0,0-.52-.35h-.51l-.77.05C496.5,225.58,496.31,225.73,496.31,226Zm2.64.51a4.71,4.71,0,0,1-.47.21.42.42,0,0,0-.3.39h1.2Zm-.6-9h.6v-.34h-.6Zm.6,34.83c-.11,0-.17.13-.17.39s.06.38.17.38.34-.13.34-.38S499.18,252.39,499,252.39Zm1-20.23.42-.34h-.68Zm0-4c-.12,0-.17.11-.17.34s.05.34.17.34a.34.34,0,1,0,0-.68Zm.42-1.28c0-.11-.07-.17-.21-.17s-.21.06-.21.17.12.17.21.17A.25.25,0,0,0,500.4,226.87Zm-.42,4h.42v-.34H500Zm1.36.94c0-.11-.07-.17-.21-.17s-.19.06-.13.17.13.17.21.17S501.34,231.94,501.34,231.82Zm-.34-2h.34v-.34Zm.34-5.3c-.17,0-.25.1-.25.3s.08.3.25.3.26-.1.26-.3S501.51,224.56,501.34,224.56Zm.26,1.2a2.4,2.4,0,0,0,.42,1.49,4.29,4.29,0,0,1,.69,1.33.7.7,0,0,0,.25-.43v-.26a2.1,2.1,0,0,0-.12-.55,2.12,2.12,0,0,1-.13-.47,8.33,8.33,0,0,1-.22-.85C502.46,225.85,502.17,225.76,501.6,225.76Zm1.11,4.78c-.17,0-.26.1-.26.3s.09.3.26.3.17-.1.17-.3S502.82,230.54,502.71,230.54Zm.25-8.37c-.11,0-.17.13-.17.39s.06.35.17.3a.34.34,0,0,0,.18-.34A.36.36,0,0,0,503,222.17Zm.34-1.28c-.16,0-.25.12-.25.35s.09.34.25.34.26-.12.26-.34S503.48,220.89,503.3,220.89Zm1.37,6v-.34h-1Zm.51,21c-.62,0-.94.23-.94.68a1.4,1.4,0,0,0,1.11-.68Zm-.17-26c-.17,0-.25.13-.25.39s.08.38.25.38.26-.13.26-.38S505.18,221.83,505,221.83Zm.34.34c-.17,0-.25.12-.25.35s.08.34.25.34.26-.12.26-.34S505.53,222.17,505.35,222.17Zm1.28,27.24c0,.05.06.14.18.25l.17.17a.87.87,0,0,0,.55-.25c.2-.17.36-.32.47-.43l-.34-.34h-.34a1,1,0,0,1-.34.17,1,1,0,0,0-.35.17v.26Zm.69,3v-.25H507Zm.34-4.52c-.17,0-.26.1-.26.3s.09.3.26.3.26-.1.26-.3S507.83,247.87,507.66,247.87Zm1,.25a.31.31,0,0,0-.34.35.3.3,0,0,0,.34.34c.12,0,.17-.11.17-.34S508.8,248.12,508.68,248.12Zm2.31,4.7c-.4,0-.63.11-.69.34h.35A.87.87,0,0,1,511,253c.17-.06.25-.11.25-.17Z" transform="translate(0 -143.31)"/><path class="cls-2" d="M70.77,262a4.84,4.84,0,0,1-.41-1.95,1.06,1.06,0,0,1,.52-1.07,1,1,0,0,0,.51-1,2,2,0,0,0-.31-1.17l-.72-1.08h.11c.06,0,.1,0,.1,0s0-.05.1-.05H71c.54,0,.82.17.82.51a.45.45,0,0,0,.51.51h.31a6.77,6.77,0,0,1,.25-2.56c.24-.75.52-1.48.82-2.2s.6-1.45.87-2.2a7.33,7.33,0,0,0,.41-2.57.49.49,0,0,1,.52.31c.06.21.27.31.61.31a11.6,11.6,0,0,0,3-.41,27.68,27.68,0,0,0,2.87-.92l.82,3.07a1.13,1.13,0,0,0,.41-.51,5.19,5.19,0,0,0,.36-.92,5.33,5.33,0,0,0,.2-1,1.19,1.19,0,0,0,0-.66c.68-.55,1.3-1,1.85-1.39a3.36,3.36,0,0,1,1.94-.56l.36,0a1.63,1.63,0,0,0,.36.05l-.92.93c.13.34.27.73.41,1.17s.27.67.41.67a1.32,1.32,0,0,0,1.12-.56,6.33,6.33,0,0,0,.72-1.28c.21-.48.41-1,.61-1.49a3.73,3.73,0,0,1,.72-1.18,2.16,2.16,0,0,1,.92-.56c.35-.1.65-.21.93-.31a2.36,2.36,0,0,0,.71-.41,1.06,1.06,0,0,0,.31-.87,1.67,1.67,0,0,0-.77-1.38,2.61,2.61,0,0,0-1.59-.56c-.34,0-.56.08-.66.25a.51.51,0,0,1-.46.26h-.21c-.13-.89-.27-1.8-.41-2.72a24.14,24.14,0,0,0-.51-2.61h-.41a1.19,1.19,0,0,0-.51.15,1.83,1.83,0,0,0-.41.26h-.41a13.37,13.37,0,0,0-.15-1.38,3,3,0,0,0-.36-1.28c-.35-.82-.87-1.13-1.59-.93a7.12,7.12,0,0,1-2,.31v.72a3.67,3.67,0,0,1-2.56-1.18A4.36,4.36,0,0,1,79.69,228a3.73,3.73,0,0,1-.41.31,1,1,0,0,1-.52.2l-.2-.2c-.14-.14-.21-.24-.21-.31a3.39,3.39,0,0,1-.56-1.43,6.62,6.62,0,0,1,.15-1.64c-.4.27-.76.49-1.07.66a2.32,2.32,0,0,1-1.18.26c-.75,0-1.06-.37-.92-1.13a10.26,10.26,0,0,0,.2-1.84,5.47,5.47,0,0,1-1.12-.21c-.55-.13-.82.18-.82.93,0,.13.15.35.46.66s.46.53.46.67a2.09,2.09,0,0,1-.36.61,6.35,6.35,0,0,1-.56.72h-.41a1.38,1.38,0,0,1-.31-.72,1.69,1.69,0,0,0-.2-.61,1.53,1.53,0,0,0-.62-.21,2.85,2.85,0,0,1-.72-.2,5.13,5.13,0,0,1-1.94-2.05,7.54,7.54,0,0,1-.77-2.46A11.41,11.41,0,0,1,68,218c0-.58,0-.87,0-.87l-1.34.21-.2.1a1.81,1.81,0,0,0-.26.46,1.88,1.88,0,0,1-.25.46c0,.07,0,.1-.11.1a.26.26,0,0,1-.2.1,3.89,3.89,0,0,0-.41-2,5.39,5.39,0,0,0-1-1.23l-1.23-1.13a4.14,4.14,0,0,1-1-1.69c0-.14,0-.55,0-1.23s-.05-1.09-.05-1.23a10.48,10.48,0,0,1,1-4.91A30.36,30.36,0,0,1,65,201.51c.78-1.09,1.52-2.13,2.2-3.12a6.1,6.1,0,0,0,1-3.54h3.28a3,3,0,0,0-.1-.72,3.23,3.23,0,0,1-.1-.82,1.21,1.21,0,0,1,.2-.71.91.91,0,0,1,.82-.31c.41,0,.8.36,1.18,1.08a1.88,1.88,0,0,0,1.79,1.07v1a1.37,1.37,0,0,1,.51.05c.07,0,.17-.12.31-.46v-4.41a1,1,0,0,1,.21-.51,2.4,2.4,0,0,1,.3-.41,1.78,1.78,0,0,1,1.39.51,3.91,3.91,0,0,1,.71,1.18,8.53,8.53,0,0,1,.41,1.43,3.82,3.82,0,0,0,.57,1.39c.41-.07.61-.38.61-.93v-.92c0-1.16-.25-1.86-.77-2.1A24.8,24.8,0,0,1,77,188.81v-.41h3.59a.76.76,0,0,1,.66.41,2.76,2.76,0,0,1,.36.92c.07.34.12.68.16,1s0,.62,0,.82h1.43l.92-2.25,2.67,1.33a1.38,1.38,0,0,1,1.33-1c.54,0,.82.2.82.61a.79.79,0,0,0,.51.82c.07.14.21.1.41-.1a.29.29,0,0,1,.21-.1v-1.75a.39.39,0,0,0,.3.11.41.41,0,0,1,.21.05.46.46,0,0,0,.2,0,.8.8,0,0,1,.51.82,1.25,1.25,0,0,1-.25.82,1.24,1.24,0,0,0-.26.82v.2l.41.41h.21q.81,0,.87-1c0-.68,0-1.13,0-1.33a2.72,2.72,0,0,1,1.59.66A5.92,5.92,0,0,1,95.26,192l.46-.46a6.09,6.09,0,0,1,.77-.66l.76-.57a1.22,1.22,0,0,1,.47-.25,1.34,1.34,0,0,1,1.22.66,4.24,4.24,0,0,1,.57,1.54,9.91,9.91,0,0,1,.15,1.69,4.57,4.57,0,0,0,.1,1.13,3.07,3.07,0,0,0,.67.66,3.05,3.05,0,0,1,.67.67v.2a.29.29,0,0,0,.1.21.92.92,0,0,1,0,.25.73.73,0,0,0-.05.26,6.41,6.41,0,0,1-.16.92,5.28,5.28,0,0,1-.25.92h-.21c-.34,0-.56-.08-.66-.25a5,5,0,0,1-.31-.57,1.46,1.46,0,0,0-.57-.56,3.14,3.14,0,0,0-1.53-.26,1,1,0,0,1-.21.31c-.13.21-.17.34-.1.41a1.62,1.62,0,0,0,.67.21,1.66,1.66,0,0,1,.66.2.92.92,0,0,1,.51.56l.21.72a1.72,1.72,0,0,0,.31.62,1,1,0,0,0,.82.25.9.9,0,0,1-.41.72,8.39,8.39,0,0,1-1,.61,5.69,5.69,0,0,0-1,.67,1.23,1.23,0,0,0-.41,1,1.2,1.2,0,0,0,.51,1.13,1.21,1.21,0,0,1,.51,1.13.93.93,0,0,0-.1.3v.41a1.58,1.58,0,0,0-.56-.66c-.31-.24-.65-.5-1-.77a7.36,7.36,0,0,0-1.12-.67,2.35,2.35,0,0,0-.87-.25.61.61,0,0,0-.57.25.58.58,0,0,1-.56.26h-.2a2.5,2.5,0,0,1-.57-.46l-.82-.82-.82-.82a2.74,2.74,0,0,1-.46-.56,1.27,1.27,0,0,1-.36-.67c0-.24-.06-.49-.1-.77a1.29,1.29,0,0,0-.2-.61.82.82,0,0,0-.67-.21,17.22,17.22,0,0,0-1.84.16l-2.82.3c-1,.11-1.93.19-2.82.26a17.45,17.45,0,0,0-1.84.21,5.28,5.28,0,0,0-2.1.46,2.13,2.13,0,0,0-1,1,10.87,10.87,0,0,0-.57,1.54,8.18,8.18,0,0,1-.87,1.89c-.48-.13-.63-.27-.46-.41a.55.55,0,0,0,.26-.41,7,7,0,0,1-1.28-.1,3.11,3.11,0,0,0-.93,0q-.36,0-.51.51a5.82,5.82,0,0,0-.15,1.59c0,.75.31,1.13.92,1.13s.73-.26.77-.77.25-.77.66-.77a13.4,13.4,0,0,0,.16,1.69,10.73,10.73,0,0,0,.51,2.1,6,6,0,0,0,1,1.79,1.82,1.82,0,0,0,1.44.77h-.11a1.29,1.29,0,0,0-.3.21.26.26,0,0,0-.1.2c0,.07,0,.1-.11.1v.41a.81.81,0,0,0,.67.82c.44.14.89.29,1.33.46a3,3,0,0,1,1.13.77,1.44,1.44,0,0,1,0,1.54c.13-.27.44-.41.92-.41a1.07,1.07,0,0,1,1.08.56,7.83,7.83,0,0,1,.41,1.18,4.74,4.74,0,0,0,.46,1.18,1.17,1.17,0,0,0,1.12.56H85a1.77,1.77,0,0,1-.56-1.13c0-.41,0-.78,0-1.12a1.72,1.72,0,0,0-.31-1,2.28,2.28,0,0,0-1.23-.76,1,1,0,0,1,.46-.11h.36a2.55,2.55,0,0,1,1.54.52c.47.34,1,.71,1.43,1.12s.94.82,1.39,1.23a3.25,3.25,0,0,0,1.48.82c.41.14,1,.31,1.64.51s1,.35,1,.41l2.26,4.41a2.5,2.5,0,0,1,.15-.67,4.26,4.26,0,0,1,.26-.66l.1-.11h.2l.11.11a12.18,12.18,0,0,1,1.43,3.17l.82-.51a4,4,0,0,0-.2,2.2,6.92,6.92,0,0,0,.76,2.2,6.26,6.26,0,0,0,1.49,1.8,4.37,4.37,0,0,0,2,1,17.36,17.36,0,0,1,1.33,2,4.36,4.36,0,0,1,.61,2.2,3,3,0,0,1-1,1.69c-.65.72-1.25,1-1.79.77a4.45,4.45,0,0,1,.82,2.66,11,11,0,0,1-.26,1.9c-.17.85-.6,1.28-1.28,1.28h-.21a1,1,0,0,0-.41-.21,1.3,1.3,0,0,1-.51-.3v.51l.31,1.23a5.58,5.58,0,0,1,.2,1l.41.41a5.86,5.86,0,0,0-.51.67c-.2.3-.34.53-.41.66A3.37,3.37,0,0,1,98,251.6a5.16,5.16,0,0,0-.92,1,1,1,0,0,0,.92.51v1.33a2,2,0,0,1-1.58-.77,1.9,1.9,0,0,0-1.39-.77l-.2.11L93.93,258c0,.14-.14.28-.41.41h-.21a.57.57,0,0,1-.56-.3,2.52,2.52,0,0,1-.21-.62,3.39,3.39,0,0,0-.15-.61.47.47,0,0,0-.51-.31,1,1,0,0,0-1.13.77,11.47,11.47,0,0,0-.31,1.59h-.51A1.53,1.53,0,0,1,88.6,258c-.34-.59-.62-1.05-.82-1.39-.34.07-.51.21-.51.41v.72a.74.74,0,0,0,.25.67c.17.1.26.32.26.66a7,7,0,0,1-.1,1.08c-.07.37-.35.56-.82.56a.54.54,0,0,1-.21-.05.64.64,0,0,0-.31-.05q.21-.21,0-.87a2,2,0,0,0-.41-.87h-.51c-.07,0-.1,0-.1-.11-.34,0-.7,0-1.07.05a.59.59,0,0,0-.57.67v.21a1.88,1.88,0,0,0,.46.25,1.54,1.54,0,0,1,.46.26l.11.1c0,.07,0,.1.1.1-.69,0-1.09.07-1.23.21a.45.45,0,0,0-.1.51,5,5,0,0,1,.15.77,1.36,1.36,0,0,1-.36,1,2.08,2.08,0,0,1-.82.21,3.37,3.37,0,0,0-.92.2c-.14,0-.24.14-.31.41a1.3,1.3,0,0,1-.2.51.1.1,0,0,1-.1.11h-.31a1.17,1.17,0,0,1-1.13-.57c-.2-.38-.65-.56-1.33-.56a4.16,4.16,0,0,0-.61.05l-.52,0c-.07,0-.2.15-.41.46s-.37.46-.51.46-.36-.15-.66-.46-.53-.46-.67-.46A5.39,5.39,0,0,0,74,263a11,11,0,0,1-1.18-.4,8.23,8.23,0,0,0-1.17-.41ZM65,203.15a.41.41,0,1,0,0,.82c.2,0,.3-.14.3-.41S65.24,203.15,65,203.15Zm2,7.58a.62.62,0,0,0,.46.66,2.82,2.82,0,0,0,1,.16,2.08,2.08,0,0,0,1.18-.26,1.26,1.26,0,0,0,.36-1.07c0-.14,0-.38,0-.72a.64.64,0,0,0-.57-.61.74.74,0,0,1,0,.87,1.74,1.74,0,0,1-.71.56,4.83,4.83,0,0,1-.93.31A3.45,3.45,0,0,1,67.09,210.73Zm1,2.66a1,1,0,0,0,.92.51v-.51Zm1.74-1c.68,0,1.08.37,1.18,1.13a13.89,13.89,0,0,1,.15,1.63,3.13,3.13,0,0,0,1.28-2.35,25.33,25.33,0,0,0,.16-2.67v-.35c0-.11-.17-.22-.51-.36a2,2,0,0,1-.52,1.84,2.77,2.77,0,0,1-1.74.82Zm1.33,8.09c-.2,0-.3.15-.3.46s.1.46.3.46.41-.15.41-.46S71.46,220.46,71.18,220.46Zm0-1.33c-.13-.07-.2,0-.2.2s.07.31.2.31a.33.33,0,0,0,.21-.31A.18.18,0,0,0,71.18,219.13Zm.93,41.49h.51v-.41h-.51Zm1.33-64.23a1.42,1.42,0,0,0-.51.92h.51ZM74,257c.07-.13,0-.2-.21-.2s-.3.07-.3.2a.32.32,0,0,0,.3.21A.19.19,0,0,0,74,257ZM74,221h.41v-.51Zm1.74,38.32c-.82,0-1.33.13-1.54.41a.63.63,0,0,0,.11.87,4,4,0,0,0,1.48.87,7.45,7.45,0,0,0,2.61.41c.07,0,0-.14-.2-.41a5.88,5.88,0,0,0-.82-.87q-.51-.46-1-.87A2,2,0,0,0,75.69,259.29Zm-1.43-56.65a.9.9,0,0,0,1,1v-1Zm.51,58.9c-.21,0-.31.15-.31.46s.1.46.31.46.41-.15.41-.46S75,261.54,74.77,261.54Zm.51-60.24h.82v-.4h-.82Zm.41-3.58c-.2,0-.31.15-.31.46s.11.46.31.46.31-.15.31-.46S75.9,197.72,75.69,197.72Zm.92,25a2.26,2.26,0,0,0,.16.67,5.28,5.28,0,0,0,.25.67,1.08,1.08,0,0,0,.62-.93,7.8,7.8,0,0,0,.1-.92,3.62,3.62,0,0,0-.72.1C76.75,222.37,76.61,222.51,76.61,222.71Zm0,35.24a1,1,0,0,0,.41.93,1,1,0,0,1,0-.26.73.73,0,0,0,.06-.26.81.81,0,0,0-.52-.82ZM77,219.64c-.2,0-.3.14-.3.41s.1.41.3.41.31-.13.31-.41S77.23,219.64,77,219.64ZM79.69,249a12,12,0,0,1-1.23.92c-.69.48-1,.82-1,1l3.18.92ZM78.35,196.9c-.13-.07-.2,0-.2.15s.07.26.2.26.21-.15.21-.26S78.49,196.9,78.35,196.9Zm1.34,29.81h.61c0-.27-.2-.55-.61-.82Zm3.58-2.66c-.14-.07-.2,0-.2.2s.06.31.2.31Q83.78,224.05,83.27,224.05Zm2-32.17a.87.87,0,0,0-.92.56,3.13,3.13,0,0,0-.21,1.08v.72a7.64,7.64,0,0,0,1.08-.72,1.44,1.44,0,0,0,.66-1.13.36.36,0,0,0-.4-.41Zm-.72,32.17H85v-.41H84.6Zm1.33-4.41c-.2,0-.3.14-.3.41s.1.41.3.41.31-.13.31-.41S86.14,219.64,85.93,219.64Zm-.2,8.4c0,.34.22.58.67.72a3.57,3.57,0,0,0,.87.2,1.13,1.13,0,0,0,.41-.41.51.51,0,0,0,.1-.51Zm.2,26.84.41-.51h-.41ZM86.34,221h.52l-.52-.51Zm.52,5.33.41-.41h-.93Zm.41-3.07c-.21,0-.31.13-.31.41s.1.41.31.41a.37.37,0,0,0,.41-.41A.36.36,0,0,0,87.27,223.23Zm.51,6.14c-.41.35-.62.65-.62.93h.62Zm1.33,25a.87.87,0,0,0-.92.51h1.33C89.52,254.54,89.38,254.37,89.11,254.37Zm-.51-27.66h.72a3,3,0,0,0-.11-.72.92.92,0,0,0-.61-.61Zm1.13-5.43c-.21,0-.36.14-.47.41a6.4,6.4,0,0,0-.25.92,4.87,4.87,0,0,0-.1,1v.56a1.76,1.76,0,0,0,1.12-.41,1.27,1.27,0,0,0,.51-1,3.73,3.73,0,0,0-.15-.87A.65.65,0,0,0,89.73,221.28Zm-.21,9h.41L89.52,229Zm.41-38.73c-.2,0-.31.14-.31.41s.11.41.31.41a.36.36,0,0,0,.41-.41A.37.37,0,0,0,89.93,191.57Zm1.84,30.73c-.13-.13-.2,0-.2.41s.07.59.2.52Q92.19,222.51,91.77,222.3Zm-.1,11.58a4.75,4.75,0,0,0,.36,1.74,1.42,1.42,0,0,0,1.49.92h.41a8.19,8.19,0,0,1,1.17-.2,4.41,4.41,0,0,0,1.08-.21.26.26,0,0,0,.1-.2c0-.27-.1-.43-.31-.46l-.61-.1a1.54,1.54,0,0,1-.61-.26.91.91,0,0,1-.31-.82c-.48.34-.81.5-1,.46a7.57,7.57,0,0,0-1.07-.05,2.25,2.25,0,0,1,.26-1.23c.16-.27-.12-.58-.88-.92a5.08,5.08,0,0,1,0,.66C91.69,233.52,91.67,233.74,91.67,233.88Zm.51,10.65c-.13-.06-.2,0-.2.21s.07.31.2.31a.33.33,0,0,0,.21-.31A.19.19,0,0,0,92.18,244.53ZM92.59,228c.07-.13,0-.2-.15-.2s-.26.07-.26.2.16.21.26.21S92.59,228.18,92.59,228Zm0,14.75c-.2,0-.3.16-.3.46s.1.46.3.46.41-.15.41-.46S92.87,242.79,92.59,242.79Zm.52-13.42a1.6,1.6,0,0,0,.82,1.44v-2.36C93.38,228.45,93.11,228.76,93.11,229.37Zm.41-36.46c-.21,0-.31.13-.31.4s.1.41.31.41.3-.13.3-.41S93.72,192.91,93.52,192.91Zm0,33.8a1,1,0,0,0,.92.61v-.61Zm3.27,3.79a4.43,4.43,0,0,0-2,.46,1.72,1.72,0,0,0-.93,1.69,4.28,4.28,0,0,0,1.9-.56A1.74,1.74,0,0,0,96.79,230.5Zm-1.53-33.6h.61a1,1,0,0,0-.61-.92Zm.51,32.47h.41l-.41-.41Zm.41,10.76h.51v-.92h-.51Zm4.1,2.56a1.7,1.7,0,0,0-1,.31,5.75,5.75,0,0,0-.87.71h.62Q100.28,243.71,100.28,242.69Zm-.93-2.15a.93.93,0,0,0,.52-.82h-.52Zm.41-4.92c-.13-.07-.2,0-.2.21s.07.3.2.3a.32.32,0,0,0,.21-.3A.19.19,0,0,0,99.76,235.62Zm.41,1.85c-.2,0-.3.13-.3.41s.1.41.3.41a.36.36,0,0,0,.41-.41A.36.36,0,0,0,100.17,237.47Z" transform="translate(0 -143.31)"/></svg>